<?xml version="1.0" encoding="UTF-8"?><svg xmlns="http://www.w3.org/2000/svg" viewBox="0 0 24.21 13.8"><defs><style>.d{fill:#c0181a;}</style></defs><g id="a"/><g id="b"><g id="c"><g><path class="d" d="M6.4,2.31c1.53,0,2.71,.9,3.3,2.1h2.72C11.61,1.7,9.4,0,6.4,0,2.8,0,0,3.03,0,6.9s2.8,6.9,6.4,6.9c2.94,0,5.16-1.73,6-4.42h-2.71c-.59,1.2-1.79,2.13-3.3,2.13-2.17,0-3.89-2.1-3.89-4.61s1.71-4.59,3.89-4.59Z"/><path class="d" d="M13.11,.3V13.54h11.1V.3H13.11Zm8.31,1.83l-2.76,3.35-2.76-3.35h5.52Zm-6.48,1.71l2.54,3.08-2.54,3.08V3.84Zm.96,7.87l2.76-3.35,2.76,3.35h-5.52Zm6.48-1.71l-2.54-3.08,2.54-3.08v6.16Z"/></g></g></g></svg>