<svg width="700" height="262" viewBox="0 0 700 262" fill="none" xmlns="http://www.w3.org/2000/svg">
<g clip-path="url(#clip0_3020_39)">
<path d="M615.684 186.369C611.582 186.919 607.822 185.945 604.306 183.908C603.098 183.209 602.088 182.105 600.821 181.568C596.331 179.652 594.334 175.713 592.855 171.561C592.206 169.74 592.504 167.526 592.616 165.503C592.693 164.137 593.085 162.757 593.531 161.45C594.257 159.322 594.888 157.096 596.024 155.189C597.079 153.417 598.161 153.76 598.851 155.802C599.076 156.473 599.288 157.15 599.505 157.826C599.82 156.987 599.843 156.194 599.816 155.401C599.68 151.821 599.275 148.229 599.451 144.663C599.613 141.323 600.248 138.032 599.004 134.746C598.77 134.129 599.081 133.295 599.18 132.564C599.374 131.113 599.978 129.598 599.739 128.228C598.977 123.873 599.708 119.762 601.105 115.683C601.272 115.196 601.529 114.669 601.475 114.191C601.006 110.044 600.37 105.914 600.001 101.763C599.735 98.7561 599.36 95.6548 599.816 92.7157C600.6 87.6535 601.989 82.686 603.129 77.6508C601.398 78.0204 599.306 78.4622 597.215 78.9039C595.754 79.2105 595.046 78.4442 595.538 77.0332C596.006 75.6944 596.71 74.4142 596.998 73.0439C597.449 70.9072 598.292 69.1942 600.321 68.1439C601.29 67.6391 602.476 67.0801 602.967 66.2101C605.32 62.0269 607.768 57.8707 607.498 52.7409C607.304 49.0626 607.462 45.3707 607.462 41.6834C606.655 41.9043 606.213 42.2468 606.145 42.6525C605.78 44.7667 605.591 46.9169 605.176 49.022C604.815 50.8747 604.337 52.7184 603.693 54.4854C603.512 54.9768 602.566 55.1931 601.971 55.5357C601.709 54.9137 601.173 54.269 601.222 53.674C601.817 46.5247 599.293 39.8487 598.134 32.9699C598.071 32.6002 597.742 32.2712 597.539 31.9241C597.341 31.9827 597.142 32.0413 596.94 32.0999C597.133 34.0112 597.444 35.9225 597.49 37.8383C597.575 41.6924 597.26 45.5691 597.571 49.3962C598.103 55.8873 596.281 61.8466 594.068 67.7608C593.856 68.3242 593.207 68.7254 592.765 69.1987C592.562 68.6172 592.152 68.0222 592.197 67.4587C592.558 62.9825 591.751 58.7588 589.956 54.6432C589.352 53.2548 589.267 51.6275 588.996 50.0994C587.842 43.5496 586.711 36.9998 585.57 30.45C584.123 33.921 583.176 37.4821 582.184 41.0343C581.964 41.8276 581.571 42.5804 581.26 43.3467C580.67 42.7652 579.957 42.2604 579.516 41.5842C577.672 38.7533 575.909 35.8684 573.853 32.5777C573.398 34.9848 572.997 36.7248 572.749 38.4829C572.51 40.2184 571.825 39.9118 570.644 39.2537C568.809 38.2259 566.893 37.3063 564.923 36.5626C562.745 35.7376 560.108 35.6655 558.327 34.3673C555.442 32.2622 552.891 29.6026 550.564 26.8619C547.044 22.7102 545.831 17.5443 544.979 12.2612C544.808 13.289 544.659 14.3168 544.83 15.295C546.011 22.0566 547.143 28.8318 548.545 35.5483C549.207 38.7353 549.415 38.5865 546.602 39.9659C543.518 41.476 536.688 39.8397 535.169 36.6662C533.42 33.0104 531.292 29.5079 530.828 25.3473C530.76 24.7252 530.345 24.1437 530.088 23.5396C529.813 23.6073 529.538 23.6794 529.264 23.747C529.579 27.2721 529.89 30.8016 530.26 34.9037C525.265 30.3959 523.092 24.8063 520.653 19.3925C521.875 31.6085 527.032 41.1515 539.348 46.0739C538.586 46.9665 538.005 47.5976 537.482 48.2692C535.485 50.8116 532.987 53.1241 531.612 55.973C527.686 64.105 524.174 72.4353 520.599 80.7296C519.296 83.7543 519.391 84.6243 520.482 86.1795C520.892 85.5799 521.374 85.0886 521.613 84.4981C522.912 81.257 523.989 77.9213 525.445 74.7568C528.745 67.5895 531.243 60.075 537.613 54.535C541.048 51.5464 544.384 50.0543 548.612 50.735C550.082 50.9739 551.795 52.1369 552.634 53.3855C554.829 56.6536 555.478 60.4943 555.614 64.407C555.821 70.6277 554.933 76.5779 552.647 82.4786C550.569 87.8428 549.352 93.5316 545.254 97.9087C545.019 98.1611 544.938 98.5578 544.794 98.8553C548.04 101.857 549.171 105.919 550.632 109.76C554.216 119.163 553.995 128.845 552.485 138.6C551.141 147.291 546.841 154.729 542.585 162.185C539.001 168.469 534.894 174.5 531.806 181.014C528.745 187.482 526.532 194.361 525.833 201.619C525.377 206.338 524.616 211.031 524.097 215.746C523.822 218.261 523.737 220.799 523.655 223.333C523.633 224.004 523.957 224.689 524.124 225.366C525.774 221.804 525.842 218.099 526.514 214.56C528.141 206.005 530.589 197.783 533.663 189.691C533.794 189.344 534.267 189.123 534.867 188.587C535.061 192.179 534.529 195.434 536.72 198.26C537.36 193.505 536.702 188.402 539.51 184.255C542.202 180.283 545.421 176.673 548.324 173.003C551.317 174.59 553.035 176.592 553.269 179.278C553.657 183.736 553.842 188.235 553.738 192.707C553.58 199.532 550.691 205.667 547.589 211.482C544.438 217.391 540.399 222.846 536.576 228.377C533.934 232.199 531.432 236.193 527.275 238.709C526.698 239.056 526.532 240.079 526.171 240.787C526.369 240.931 526.568 241.08 526.766 241.224C530.201 238.375 533.307 234.904 537.166 232.848C541.3 230.644 542.959 226.145 546.751 223.846C546.985 223.977 547.224 224.108 547.458 224.239C546.349 227.128 545.245 230.018 543.996 233.281C544.645 232.835 545.06 232.614 545.394 232.312C550.411 227.741 553.188 221.863 554.924 215.467C555.816 212.18 556.191 208.754 557.029 205.446C557.755 202.574 558.688 199.734 559.779 196.985C560.194 195.943 561.163 194.704 562.141 194.397C564.571 193.631 567.159 193.347 569.462 192.91C571.473 190.016 573.38 186.838 575.733 184.029C577.694 181.69 579.57 182.069 581.305 184.552C582.671 186.513 584.082 188.438 585.588 190.539C585.868 187.969 586.106 185.76 586.436 182.718C591.516 186.459 596.606 189.074 602.327 190.295C608.183 191.544 615.937 190.62 618.966 188.289C618.358 187.884 617.69 187.415 616.996 186.991C616.581 186.739 616.086 186.333 615.68 186.387L615.684 186.369ZM579.773 68.2656C580.413 72.3046 581.093 76.3345 581.639 80.387C581.693 80.7837 580.927 81.2886 580.543 81.7438C580.318 81.6852 580.093 81.6311 579.872 81.5725C579.367 77.2271 578.866 72.8816 578.362 68.5361C578.83 68.4459 579.304 68.3558 579.773 68.2656ZM588.297 113.172C586.156 116.566 585.48 120.245 586.287 124.135C587.675 130.833 586.012 137.32 585.056 143.852C584.614 146.876 583.988 149.888 583.199 152.84C582.595 155.108 581.071 155.41 579.782 153.476C578.533 151.601 577.748 149.41 576.576 146.98C576.382 147.697 575.968 148.432 576.04 149.117C576.522 153.882 577.099 158.637 577.658 163.393C577.803 164.61 577.216 165.25 576.369 166.161C574.453 168.221 572.97 170.686 571.369 173.026C570.756 173.918 570.301 174.919 569.255 175.749C569.088 173.644 568.953 171.538 568.75 169.442C568.182 163.555 567.596 157.668 566.992 151.781C566.915 151.037 566.87 150.226 566.537 149.586C564.427 145.538 565.054 141.454 566.888 137.685C570.238 130.802 568.953 123.783 568.097 116.742C567.745 113.839 567.1 110.977 566.685 108.083C566.573 107.307 566.717 106.451 566.924 105.68C569.097 97.6698 571.351 89.682 573.466 81.6582C573.921 79.9272 573.903 78.07 574.101 76.2714C574.39 76.2624 574.683 76.2489 574.971 76.2399C575.364 79.4043 575.792 82.5642 576.139 85.7332C576.491 88.9743 576.766 92.2244 577.072 95.4745C577.293 95.497 577.51 95.515 577.73 95.5376C578.082 94.2574 578.434 92.9817 578.934 91.156C580.945 93.6669 581.044 96.2363 580.958 98.7516C580.629 108.191 580.187 117.626 579.804 127.06C579.795 127.304 579.957 127.556 580.174 128.214C580.787 125.09 580.99 122.305 581.923 119.794C582.955 117.031 584.569 114.461 586.138 111.937C586.53 111.306 587.734 111.175 588.563 110.814C588.712 111.013 588.856 111.207 589.005 111.405C588.771 112 588.622 112.649 588.288 113.181L588.297 113.172Z" fill="black"/>
<path d="M314.703 164.565C314.325 159.493 311.53 155.72 308.013 152.556C304.533 149.423 304.335 149.644 305.913 145.253C305.949 145.15 305.84 144.996 305.795 144.848C301.567 144.302 298.253 142.301 296.991 138.118C296.062 135.043 295.774 131.775 295.233 128.588C294.985 127.114 295.526 126.226 297.09 125.829C298.853 125.379 299.619 124.418 298.808 122.376C297.974 120.28 296.955 117.927 297.18 115.809C297.902 108.97 299.159 102.191 300.255 95.0955C301.301 95.8618 302.423 96.7228 303.591 97.5162C304.028 97.8137 304.569 97.9444 305.065 98.1562C305.051 97.6288 305.128 97.0789 305.002 96.5785C304.646 95.1496 303.956 93.7567 303.839 92.3142C303.248 85.2009 305.191 78.4618 307.062 71.7137C308.112 67.9362 309.524 64.1948 310.028 60.3406C311.367 50.1486 310.015 40.0602 307.765 30.1116C306.066 22.6062 299.268 14.6049 293.768 10.8364C299.222 18.3644 302.586 26.7488 304.186 35.8545C305.827 45.2126 303.347 53.8585 299.588 62.9056C299.011 62.013 298.596 61.5577 298.406 61.0258C298.059 60.0567 297.825 59.0379 297.577 58.0372C296.486 53.6151 296.148 49.2831 298.772 45.181C299.173 44.559 299.119 43.6439 299.272 42.8641C299.069 42.7604 298.871 42.6567 298.668 42.553C298.213 42.9317 297.667 43.2382 297.32 43.698C294.525 47.4259 293.312 51.7443 292.956 56.2927C292.618 60.6066 292.654 64.9521 292.289 69.266C291.897 73.8459 291.261 78.4077 290.657 82.9696C289.949 88.3293 289.183 93.6845 288.353 99.0262C288.281 99.495 287.564 99.8692 287.213 100.221C286.302 97.4756 285.5 95.0549 284.702 92.6387C284.463 92.7109 284.219 92.7785 283.98 92.8506C283.98 95.0053 283.588 97.2547 284.066 99.2967C284.914 102.93 283.823 106.198 282.957 109.556C282.867 109.908 282.439 110.345 282.101 110.408C281.826 110.462 281.366 110.079 281.149 109.777C280.811 109.299 280.599 108.731 280.351 108.191C277.069 101.064 273.747 93.9505 270.555 86.7832C270.068 85.6923 269.861 84.2814 270.064 83.1139C270.772 79.0343 271.763 74.9999 272.552 70.9339C273.021 68.5132 273.319 66.0565 273.756 63.185C272.345 64.2308 271.389 64.9386 270.019 65.9483C268.364 50.0224 271.989 36.8101 285.423 27.2672C284.359 26.7488 283.516 26.2755 282.903 26.4829C280.266 27.3754 277.61 28.295 275.14 29.5526C273.517 30.3776 272.192 31.793 270.74 32.9515C267.043 35.8951 264.064 38.9919 263.36 44.2344C262.909 47.6017 260.664 50.8744 258.708 53.8495C257.243 56.0718 254.826 55.7923 253.442 53.4618C251.81 50.7166 250.539 47.7595 249.245 45.154C249.245 49.2741 248.871 53.8089 249.331 58.2581C250.084 65.5426 249.471 72.5612 247.604 79.6474C246.148 85.1829 243.552 90.4705 243.745 96.4523C243.84 99.3914 243.524 102.434 242.817 105.288C241.73 109.678 240.166 113.906 236.609 117.116C235.441 118.171 234.22 119.685 233.976 121.15C233.003 126.988 232.389 132.884 231.673 138.767C230.902 145.096 232.872 150.947 234.986 156.73C235.613 158.443 236.767 159.962 237.682 161.567C237.889 161.477 238.097 161.387 238.304 161.301C238.331 160.891 238.448 160.467 238.372 160.079C237.416 155.297 236.947 150.496 238.511 145.767C239.481 142.842 240.554 139.925 241.893 137.157C242.911 135.052 245.233 135.444 246.874 135.954C247.523 136.157 247.591 138.365 247.825 139.677C247.893 140.042 247.613 140.475 247.456 140.998C251.553 141.683 254.984 142.589 256.711 147.255C258.537 152.191 261.12 156.807 261.318 162.243C261.381 163.947 261.629 165.71 262.166 167.319C264.127 173.192 262.783 178.187 259.132 183.1C255.935 187.401 253.442 192.22 250.643 196.813C251.513 196.741 252.243 196.439 252.789 195.93C256.332 192.634 260.006 189.452 263.315 185.931C268.297 180.639 271.434 174.4 271.308 166.936C271.263 164.204 270.866 161.459 270.411 158.759C269.518 153.503 268.486 148.269 267.463 143.036C267.363 142.526 267.016 142.012 266.66 141.611C265.65 140.48 264.194 139.583 263.581 138.275C260.295 131.257 258.848 123.684 257.455 116.129C257.274 115.15 257.824 113.392 258.537 113.059C259.483 112.613 261.273 112.775 262.084 113.433C265.47 116.169 268.418 119.406 269.464 123.774C270.316 127.321 270.713 130.977 271.385 135.043C271.908 134.34 272.255 133.745 272.724 133.267C275.613 130.315 277.399 130.657 278.634 134.714C280.243 140.006 281.735 145.348 282.899 150.753C283.381 152.98 283.453 155.427 281.844 157.632C281.307 158.366 281.83 159.922 281.979 161.089C282.272 163.42 283.255 165.845 282.871 168.045C281.388 176.569 279.463 185.012 277.737 193.491C276.402 200.041 274.802 206.554 273.932 213.167C273.346 217.616 273.819 222.205 273.819 226.736C274.027 226.736 274.238 226.736 274.446 226.731C274.446 225.239 274.446 223.751 274.446 222.259C274.446 216.724 275.532 211.54 278.913 206.951C280.081 205.364 280.965 203.516 281.713 201.677C283.998 196.06 286.077 190.358 288.403 184.755C289.061 183.173 290.274 181.82 291.27 180.391C291.649 179.846 292.302 179.445 292.532 178.859C293.641 176.032 294.543 173.125 295.724 170.33C296.644 168.157 297.874 167.981 298.961 170.082C300.521 173.084 301.882 176.276 302.725 179.544C304.001 184.471 305.042 189.501 305.629 194.55C306.016 197.886 305.574 201.348 305.227 204.724C304.939 207.542 304.244 210.314 303.735 213.109L304.267 213.366C305.57 211.892 306.873 210.413 308.46 208.614C308.762 210.814 309.176 212.284 309.131 213.74C308.892 221.574 308.802 229.427 308.144 237.23C307.576 243.982 307.955 250.604 309.1 257.235C309.375 258.826 309.672 260.418 309.956 262.009C310.146 261.977 310.335 261.946 310.524 261.914C310.524 258.119 310.416 254.323 310.556 250.532C310.687 246.872 310.962 243.207 311.372 239.569C312.057 233.448 313.144 227.362 313.608 221.227C314.176 213.722 314.23 206.18 314.595 198.657C314.73 195.921 315.186 193.198 315.384 190.462C315.668 186.567 316.128 182.654 315.997 178.769C315.835 174.026 315.055 169.311 314.699 164.574L314.703 164.565ZM244.07 131.293C243.376 131.694 242.709 132.14 242.028 132.564C241.748 132.474 241.473 132.379 241.194 132.289C241.784 129.747 242.325 127.191 243.033 124.68C243.101 124.445 244.476 124.207 244.818 124.486C246.703 126.023 246.189 130.067 244.07 131.293ZM260.561 91.8228C261.151 92.0708 262.057 92.1744 262.26 92.6027C262.657 93.4411 262.657 94.4644 262.869 95.713C262.68 96.2855 262.414 97.0744 262.152 97.8587C261.268 97.2772 259.691 96.7498 259.641 96.1052C259.533 94.7078 260.205 93.2518 260.556 91.8183L260.561 91.8228ZM257.824 65.5922C256.873 64.5238 255.633 63.6719 255.76 63.1715C256.107 61.8057 257.035 60.5931 257.734 59.3174C258.167 59.7907 259.001 60.3091 258.956 60.7373C258.821 62.1077 258.356 63.442 257.82 65.5967L257.824 65.5922ZM263.428 110.012C260.809 109.534 258.338 104.463 258.766 102.398C258.861 101.934 259.434 101.19 259.727 101.217C260.466 101.285 261.368 101.528 261.846 102.037C263.23 103.507 263.942 107.505 263.428 110.007V110.012Z" fill="black"/>
<path d="M172.085 140.421C171.918 140.98 170.398 141.729 169.984 141.499C168.947 140.935 167.631 139.975 167.419 138.965C166.296 133.673 165.169 128.35 164.651 122.976C164.096 117.247 164.362 111.441 163.997 105.689C163.722 101.339 163.803 96.9666 161.973 92.7564C159.574 87.2389 160.58 81.3563 161.783 75.7892C163.122 69.6 165.354 63.6047 167.162 57.5147C167.585 56.0858 167.874 54.6117 168.226 53.1602C167.328 53.913 166.833 54.8101 166.26 55.6575C163.772 59.3223 158.97 59.1285 157.235 55.1346C155.851 51.9476 154.597 48.6299 153.863 45.2446C152.659 39.691 149.539 35.7512 144.851 32.8528C143.584 32.0684 142.29 31.3336 141.01 30.5718C142.93 33.9346 144.337 37.4507 145.545 40.7188C148.561 48.8778 150.5 57.4381 152.803 65.8586C153.385 67.9862 154.228 70.2311 154.025 72.3362C153.664 76.0912 152.605 79.774 151.726 84.0158C148.349 81.9062 148.597 78.8409 147.907 76.0551C147.245 77.9349 146.6 79.8326 146.537 81.7439C146.379 86.468 146.352 91.2057 146.528 95.9298C146.654 99.3287 145.351 101.898 143.088 104.287C141.745 105.707 140.591 107.398 139.707 109.147C137.047 114.425 134.595 119.807 131.967 125.1C131.588 125.866 130.686 126.371 129.785 127.232C129.397 125.929 129.14 125.235 128.982 124.523C127.323 116.963 125.606 109.413 124.077 101.826C123.69 99.9147 123.708 97.8637 123.897 95.9118C124.168 93.1576 124.772 90.4394 125.263 87.5184C124.24 87.7077 123.356 87.87 122.382 88.0503C120.94 80.9551 122.265 74.2205 123.392 67.4814L122.856 67.2244C120.475 71.5293 118.091 75.8342 115.625 80.2879C115.44 79.8732 115.124 79.4044 115.025 78.895C114.124 74.216 113.154 69.5459 112.419 64.8398C111.915 61.6123 111.743 58.3351 111.446 55.0805C111.292 53.4217 111.536 51.6411 111.013 50.1175C106.992 38.4694 108.01 26.9746 112.239 15.7188C113.988 11.0668 116.725 6.78438 118.848 2.65527C116.743 3.81377 113.497 7.56422 112.185 10.5213C108.254 19.3926 104.711 28.4216 102.993 38.0006C101.974 43.6804 101.442 49.4729 101.068 55.2338C100.829 58.9392 101.42 62.6941 101.375 66.422C101.347 68.6534 100.806 70.8757 100.486 73.1927C99.131 72.6157 98.031 69.7052 97.1865 64.4612C96.8754 65.2816 96.6906 65.818 96.4697 66.3364C95.2435 69.2033 95.6807 72.1965 96.0955 75.0905C96.6184 78.7192 96.9881 82.5373 98.4307 85.8325C102.055 94.0907 104.314 102.606 104.526 111.585C104.661 117.418 104.431 123.274 104.066 129.102C103.818 133.006 103.39 136.964 102.429 140.746C100.906 146.764 98.859 152.651 97.0647 158.606C96.632 160.039 96.3164 161.504 95.9467 162.956C98.3496 159.845 100.329 156.568 102.416 153.359C102.772 152.813 103.583 152.561 104.58 151.925C104.58 157.154 104.629 161.635 104.557 166.116C104.521 168.266 104.39 170.434 104.07 172.562C103.768 174.568 103.254 176.434 101.586 178.021C99.9049 179.616 98.7598 181.78 97.4299 183.727C96.6906 184.809 96.6455 185.747 97.7905 186.784C100.806 189.515 102.506 193.031 103.277 196.989C103.899 200.176 104.237 203.435 105.076 206.564C106.717 212.654 107.808 219.082 113.434 223.202C113.713 223.409 113.853 223.801 114.069 224.099C117.789 229.197 118.699 235.17 118.907 241.188C119.055 245.565 118.397 249.969 118.077 254.36C118.041 254.873 117.811 255.369 117.753 255.888C117.694 256.406 117.739 256.933 117.739 257.736C118.01 257.339 118.109 257.231 118.158 257.109C122.509 247.007 123.275 236.41 121.53 225.758C119.98 216.292 117.563 206.96 115.417 197.593C114.529 193.712 112.681 189.935 112.455 186.044C112.135 180.495 112.879 174.883 113.267 169.307C113.308 168.726 113.993 168.185 114.687 167.179C114.917 169.24 115.066 170.596 115.219 171.949C115.417 171.944 115.616 171.94 115.814 171.931C115.99 170.082 116.332 168.234 116.314 166.391C116.229 157.749 115.895 149.108 115.945 140.466C115.976 134.728 116.472 128.99 116.815 123.256C116.95 120.984 117.234 118.721 117.451 116.454C117.635 116.364 117.816 116.273 118 116.183C118.375 116.832 118.938 117.441 119.1 118.14C120.457 123.982 121.666 129.86 123.068 135.693C123.866 139.015 123.275 141.959 121.521 144.821C121.251 145.263 121.544 146.268 121.882 146.831C126.422 154.454 128.022 162.866 127.914 171.534C127.828 178.426 127.26 185.364 124.014 191.715C123.92 191.896 124.086 192.211 124.127 192.464C124.343 192.567 124.564 192.666 124.781 192.77C126.02 190.773 127.788 188.92 128.392 186.748C129.911 181.275 131.178 175.704 132.021 170.091C132.729 165.376 132.706 160.553 132.995 155.775C133.035 155.103 132.864 154.377 133.062 153.764C133.229 153.246 133.797 152.863 134.189 152.417C134.532 152.777 135.046 153.084 135.176 153.507C135.501 154.535 135.65 155.622 135.965 157.172C137.453 153.404 139.126 150.163 138.869 146.322C138.648 143.04 138.476 139.754 138.472 136.468C138.472 135.643 138.986 134.611 139.603 134.029C143.151 130.671 147.1 127.71 149.733 123.463C149.981 123.067 150.657 122.801 151.162 122.76C151.37 122.742 151.816 123.477 151.843 123.891C152.186 129.17 152.645 134.449 152.695 139.732C152.718 141.95 152.249 144.379 151.261 146.34C150.477 147.9 148.746 149.387 147.096 149.987C145.807 150.456 145.338 150.848 145.112 152.056C143.719 159.539 142.272 167.008 140.861 174.487C140.343 177.245 139.292 180.049 139.482 182.763C140.032 190.593 140.839 198.427 142.033 206.185C143.043 212.757 144.729 219.231 146.113 225.744C146.402 223.901 146.046 222.125 146.104 220.362C146.28 215.219 146.713 210.084 146.866 204.945C147.015 200.032 146.767 195.105 147.028 190.201C147.267 185.769 147.754 181.329 148.521 176.961C149.089 173.707 150.351 170.732 154.3 169.938C156.284 169.542 158.204 168.676 160.057 167.811C161.477 167.152 162.189 166.932 162.766 168.847C164.367 174.171 166.634 179.238 165.579 185.134C164.754 189.754 164.917 194.542 164.43 199.23C164.209 201.375 163.442 203.44 160.949 203.967C161.215 207.213 162.518 208.137 167.752 208.953C170.903 203.71 175.285 139.01 172.801 135.472C172.594 137.077 172.544 138.812 172.062 140.417L172.085 140.421ZM164.745 167.157C161.883 163.654 161.905 160.242 164.795 156.302C166.093 160.111 164.606 163.627 164.745 167.157Z" fill="black"/>
<path d="M383.358 128.3C384.53 128.075 385.63 127.471 386.342 127.196C385.08 123.968 383.651 121.052 382.831 117.973C382.132 115.354 382.303 112.514 381.789 109.827C380.545 103.313 379.531 96.8178 380.283 90.1463C380.626 87.0946 380.833 83.9977 380.761 80.9325C380.68 77.3713 380.193 73.8237 379.95 70.2626C379.828 68.4685 380.013 66.6474 379.779 64.8758C379.201 60.4763 378.467 56.1037 377.817 51.8755C376.447 54.2961 374.995 57.1991 371.808 58.4162C368.702 59.6017 365.411 59.7956 362.386 58.601C359.388 57.42 357.477 54.8731 356.81 52.1775C355.295 53.0159 353.83 54.499 352.351 54.5125C348.736 54.5486 346.089 52.4164 344.836 49.0536C343.795 46.2633 343.204 43.3017 342.546 40.9036C340.982 40.5835 338.948 40.7683 338.11 39.8578C336.735 38.3612 335.739 38.2214 334.17 39.1591C333.809 39.3709 333.214 39.1906 332.614 39.1906C332.515 35.9721 333.426 32.6273 330.536 30.2066C330.36 30.0579 330.419 29.6387 330.356 29.3457C329.991 27.7003 329.621 26.0595 329.116 23.7876C328.882 26.7492 328.855 29.0707 328.481 31.3336C327.863 35.1111 327.042 38.8525 326.253 42.5985C326.163 43.0357 325.703 43.7344 325.419 43.7344C323.107 43.7164 323.341 45.5691 323.156 46.8854C322.291 52.9799 321.362 59.0383 318.414 64.5783C318.112 65.1463 317.986 66.0253 318.197 66.6023C319.243 69.4422 319.077 72.255 318.152 75.0408C317.76 76.2309 317.084 77.3308 316.484 78.5794C316.647 78.6876 317.192 79.3322 317.742 79.3412C320.226 79.3728 320.916 81.1759 321.218 82.997C321.727 86.0713 322.061 89.1952 322.174 92.3055C322.331 96.6285 322.214 100.956 322.214 105.522C321.592 105.743 320.591 106.095 319.464 106.491C320.307 108.281 321.078 109.805 321.727 111.378C321.957 111.932 322.165 112.739 321.93 113.199C320.817 115.363 319.505 117.427 318.351 119.573C317.886 120.434 317.327 121.426 317.359 122.341C317.598 129.292 317.936 136.243 318.324 143.189C318.405 144.636 318.829 146.065 319.095 147.499C319.667 146.245 319.825 144.983 320.226 143.802C320.406 143.275 321.065 142.91 321.506 142.472C321.894 142.932 322.548 143.351 322.62 143.856C323.017 146.642 323.458 149.446 323.526 152.25C323.648 157.298 323.526 162.307 325.068 167.252C327.583 175.334 329.806 183.507 332.105 191.657C333.052 195.015 333.868 198.414 334.887 202.358C335.166 201.506 335.351 201.231 335.319 200.983C335.044 198.653 334.769 196.327 334.427 194.005C333.412 187.126 334.476 180.41 335.608 173.626C336.514 168.198 341.707 166.584 346.049 167.815C346.784 168.022 347.987 167.761 348.528 167.247C352.306 163.659 356.58 162.266 361.683 163.772C362.08 163.889 362.666 163.835 362.999 163.614C367.53 160.585 369.009 155.856 369.996 150.875C370.785 146.899 371.069 142.743 372.43 138.974C374.283 133.845 377.322 129.431 383.353 128.282L383.358 128.3ZM370.834 103.093C370.469 105.135 370.244 107.226 370.221 109.295C370.167 115.173 367.142 119.979 364.126 124.513C361.02 129.188 356.972 133.25 353.176 137.437C352.297 138.406 350.841 138.992 349.542 139.403C346.49 140.363 343.371 141.116 339.413 142.184C339.922 140.701 340.134 139.75 340.553 138.902C342.253 135.485 344.191 132.181 345.688 128.679C346.468 126.849 346.509 124.707 346.856 122.868C345.03 122.53 343.168 122.742 342.537 121.958C341.081 120.163 339.552 117.968 339.277 115.782C338.836 112.27 339.332 108.633 339.539 105.053C339.643 103.268 340.238 101.479 340.129 99.7253C340.062 98.666 339.097 97.6472 338.484 96.642C338.092 96.0019 337.253 95.4475 337.208 94.8119C336.676 87.4146 336.275 80.0039 335.788 72.6021C335.644 70.4384 335.328 68.2837 335.116 66.1245C335.017 65.1283 335.184 63.9608 336.482 64.6955C339.688 66.5167 343.069 68.2882 344.678 71.8854C345.895 74.6081 346.838 77.4525 347.911 80.2383C348.14 80.8333 348.384 81.4238 349.047 81.9783C349.673 78.3044 350.304 74.6306 351.062 70.1995C353.424 72.0296 355.556 73.2738 357.166 75.0093C361.94 80.1707 366.313 85.6476 369.441 92.0261C371.186 95.5827 371.538 99.2295 370.848 103.088L370.834 103.093ZM370.852 81.3337C369.504 79.774 368.256 78.336 366.876 76.7448C368.287 75.9108 369.432 75.0318 370.731 74.5765C371.245 74.3962 372.367 74.9867 372.732 75.5412C373.828 77.2046 373.048 79.5215 370.852 81.3337Z" fill="black"/>
<path d="M222.755 126.497C223.188 122.264 224.009 118 225.244 113.929C227.944 105.031 231.258 96.3173 233.845 87.3874C234.936 83.6189 235.576 79.4087 235.099 75.5636C234.395 69.8703 233.273 64.2401 233.417 58.4611C233.485 55.7655 233.431 53.0653 233.431 50.3517C232.633 51.2983 231.754 52.3351 230.455 53.8813C229.811 50.5996 229.288 47.9445 228.765 45.285C227.34 38.0275 225.429 30.8196 224.64 23.4944C223.9 16.6156 221.191 10.9539 216.872 5.85558C215.146 3.81807 213.225 1.94735 211.39 0C211.219 0.135233 211.048 0.265958 210.881 0.401191C211.481 1.89326 212.094 3.38533 212.675 4.8819C217.296 16.7599 220.325 28.9398 219.956 41.823C219.78 47.9716 220.078 54.1382 219.857 60.2868C219.757 62.9959 219.212 65.7908 218.297 68.3421C217.31 71.0919 215.651 73.6027 214.01 76.7446C216.047 76.9745 217.878 77.1774 220.114 77.4298C219.83 80.8377 219.622 84.2455 219.244 87.6309C218.793 91.6788 218.058 95.7042 217.706 99.7612C217.174 105.901 216.038 111.693 210.656 115.642C212.716 117.463 212.603 117.468 212.734 120.628C213.099 129.431 210.989 137.937 209.822 146.561C209.317 150.289 208.897 154.048 208.762 157.803C208.694 159.669 209.357 161.567 209.799 164.078C208.704 163.406 208.099 163.095 207.554 162.694C206.364 161.82 205.331 160.553 204.011 160.084C202.018 159.376 201.644 158.2 201.95 156.383C202.96 150.392 202.225 144.474 201.049 138.6C200.354 135.134 200.711 131.956 202.131 128.624C203.303 125.879 203.853 122.733 204.015 119.731C204.186 116.557 203.704 113.325 203.285 110.152C202.613 105.062 201.797 99.9911 200.945 94.9244C200.801 94.0634 200.17 93.2881 199.764 92.4722C199.313 93.6938 199.367 94.7711 199.3 95.844C199.187 97.7192 199.097 99.608 198.777 101.456C198.682 101.993 197.821 102.389 197.311 102.854C196.919 102.295 196.315 101.785 196.175 101.168C195.377 97.6291 194.575 94.086 193.998 90.5113C193.507 87.446 192.988 84.3222 193.074 81.2388C193.2 76.8077 193.989 72.3991 194.237 67.968C194.35 65.953 193.836 63.902 193.606 61.869C193.367 61.887 193.128 61.9096 192.889 61.9276C192.889 63.1627 193.123 64.4565 192.839 65.624C192.267 67.959 191.482 70.2579 190.612 72.5028C190.405 73.0347 189.512 73.3007 188.805 73.774C187.407 57.8436 191.032 43.5855 199.367 30.3327C198.051 30.5401 196.937 30.8646 195.986 31.4551C192.497 33.6279 190.419 37.0628 188.485 40.4977C182.169 51.7265 177.868 63.8119 173.716 75.9512C173.423 76.8122 173.27 77.8535 173.454 78.7235C174.712 84.552 176.092 90.358 177.404 96.1731C179.279 104.494 181.145 112.816 182.989 121.146C183.499 123.436 183.927 125.744 184.319 127.696C184.905 127.11 185.523 126.483 186.145 125.861C186.578 126.7 187.015 127.538 187.439 128.376C187.47 128.435 187.439 128.525 187.448 128.597C187.79 132.844 187.926 137.117 188.53 141.327C189.63 148.963 188.814 156.5 187.898 164.06C187.709 165.62 187.574 167.333 188.011 168.798C189.445 173.598 191.225 178.277 194.607 182.141C196.166 183.926 197.97 185.445 200.467 185.233C204.966 184.85 208.663 186.68 211.949 189.344C215.632 192.324 216.944 196.683 218.171 201.181C218.802 198.459 219.334 195.718 219.451 192.959C219.559 190.394 220.285 188.199 222.381 186.779C223.558 185.986 223.72 185.089 223.562 183.962C223.098 180.667 222.647 177.367 222.061 174.094C220.893 167.562 219.825 161.058 220.461 154.35C221.34 145.078 221.809 135.76 222.755 126.497Z" fill="black"/>
<path d="M414.288 158.547C416.736 159.277 418.904 159.922 421.402 160.661C421.293 159.579 421.384 158.66 421.086 157.889C419.806 154.558 418.408 151.267 417.069 147.958C416.826 147.359 416.33 146.624 416.497 146.137C417.75 142.418 416.501 138.929 415.568 135.454C413.918 129.296 414.522 123.598 417.935 118.076C420.333 114.195 422.218 110.003 424.562 105.509C418.598 107.145 418.602 106.996 416.438 101.479C415.253 98.4541 414.166 95.1409 416.619 92.1973C417.899 90.6601 417.876 89.0824 417.682 87.365C417.43 85.1427 417.322 82.8798 416.785 80.725C416.235 78.5117 416.979 77.0467 418.534 75.6178C419.991 74.2835 421.271 72.7598 422.614 71.3264C419.905 63.8525 417.074 56.5049 417.146 48.2466C417.232 38.5144 421.501 31.2884 428.763 25.4284C430.323 24.1707 432.077 23.1609 433.767 22.016C421.46 22.291 415.225 30.8467 409.302 40.4121C408.774 38.0907 408.562 36.4093 408.008 34.8496C406.597 30.8782 403.225 28.9534 399.812 26.9024C394.858 23.9273 389.322 21.6238 386.008 16.4489C385.959 16.3723 385.733 16.4128 384.998 16.3452C385.273 17.4045 385.264 18.4594 385.769 19.131C388.952 23.3999 391.792 27.9437 396.206 31.2028C398.14 32.6318 399.862 34.4619 401.322 36.3822C403.008 38.6 402.053 41.5977 399.731 41.9583C397.729 42.2693 395.678 42.6255 393.699 41.6157C392.865 41.192 391.914 41.0072 391.017 40.7097C390.999 41.5481 391.26 42.2333 391.743 42.4677C394.357 43.7479 397.161 44.7035 399.641 46.1956C401.877 47.5389 404.041 49.1978 405.763 51.1406C407.715 53.3359 406.89 56.027 406.344 58.7362C405.384 63.5234 404.51 68.4144 404.469 73.2647C404.447 75.9468 404.41 78.381 403.216 80.7656C401.742 83.7092 399.149 83.7362 396.368 83.2314C397.689 88.9156 401.99 89.3033 405.231 86.1885C405.718 85.7242 406.412 85.4762 407.327 84.9398C407.327 86.247 407.548 87.1892 407.291 87.9735C406.2 91.2957 405.073 94.618 403.761 97.859C401.665 103.038 399.357 108.132 397.247 113.303C396.634 114.808 396.382 116.467 395.962 118.054C398.147 115.115 400.147 113.14 401.963 112.131C404.154 110.909 404.879 111.225 404.568 113.776C404.05 118.022 403.432 122.3 402.314 126.42C401.349 129.972 399.979 133.533 398.104 136.68C397.035 138.469 396.409 140.034 396.566 141.999C396.769 144.523 396.566 147.039 395.061 149.099C392.162 153.079 389.263 157.1 385.977 160.756C382.023 165.155 377.195 168.473 371.397 170.191C373.579 177.038 374.449 183.881 374.508 190.854C374.513 191.535 374.968 192.382 375.482 192.865C378.795 195.984 382.212 198.995 385.521 202.119C385.977 202.552 386.283 203.453 386.207 204.084C385.855 206.969 385.341 209.841 384.926 212.46C387.843 210.598 390.093 205.622 388.362 201.601C387.072 198.607 386.342 195.371 385.255 192.283C383.078 186.094 384.935 181.068 389.673 176.943C392.982 174.058 397.324 174.757 399.447 177.516C402.634 181.663 403.838 186.473 404.681 191.467C404.834 192.369 405.051 193.626 405.677 194.023C408.725 195.943 409.748 199.18 407.71 202.173C406.16 204.45 404.388 206.618 402.458 208.583C399.555 211.536 398.072 215.097 397.283 219.032C397.175 219.573 397.418 220.182 397.572 221.259C398.685 218.631 399.303 216.346 400.547 214.479C401.787 212.618 403.513 210.945 406.84 211.107C406.214 221.516 409.144 231.32 413.071 240.922C413.364 240.029 413.463 239.146 413.233 238.357C410.947 230.468 410.397 222.408 411.046 214.281C411.394 209.935 411.705 205.536 414.067 201.587C414.572 200.744 414.319 199.311 414.116 198.206C413.287 193.653 411.813 189.146 411.578 184.57C411.308 179.242 411.935 173.846 412.457 168.509C412.778 165.237 413.625 162.018 414.279 158.547H414.288Z" fill="black"/>
<path d="M697.498 52.5516C697.042 52.1414 696.38 51.9701 695.812 51.6861C695.663 52.4479 695.248 53.2774 695.415 53.9671C697.06 60.7963 692.426 63.8931 686.412 63.1584C682.788 62.7166 681.584 59.2141 683.924 56.3607C684.577 55.5628 685.506 54.8641 685.84 53.949C686.259 52.7995 685.988 51.4021 686.385 50.2346C687.111 48.1025 688.22 46.101 688.928 43.9643C689.203 43.1304 689.189 41.5392 688.702 41.2236C686.191 39.5963 686.656 37.2342 686.723 34.9128C686.755 33.8624 686.84 32.8031 686.741 31.7618C686.692 31.2434 686.281 30.7611 686.034 30.2607C685.763 30.3103 685.488 30.3554 685.218 30.405C685.1 32.5056 685.006 34.6062 684.857 36.7068C684.74 38.3973 685.109 40.4257 684.302 41.7014C682.305 44.8749 679.993 47.9357 677.36 50.6043C675.079 52.9213 674.655 55.1887 675.665 58.0691C676.269 59.7956 676.774 61.5716 677.166 63.3567C678.099 67.612 677.089 69.1086 672.789 70.0507C671.193 70.4023 670.453 71.1822 670.476 73.0078C670.584 81.532 668.957 89.6595 664.169 96.8899C661.721 100.586 656.383 103.863 651.059 102.484C649.355 102.042 647.642 101.641 645.934 101.222C645.722 101.312 645.505 101.402 645.294 101.492C650.658 108.529 652.398 116.427 651.537 125.023C648.066 119.42 646.43 112.712 640.898 108.407C640.718 109.336 640.731 110.188 640.984 110.963C642.557 115.8 644.13 120.641 645.821 125.438C646.511 127.394 646.146 129.256 646.019 131.212C645.83 134.12 646.412 137.095 646.064 139.971C645.848 141.76 644.766 143.595 643.653 145.096C642.381 146.809 639.203 146.299 638.081 144.474C636.174 141.377 634.956 138.091 635.38 134.372C635.619 132.262 635.24 130.752 632.558 131.185C632.098 131.257 631.526 131.023 631.088 130.784C628.068 129.125 626.585 126.366 625.728 123.175C623.673 115.516 624.313 108.002 626.941 100.6C627.446 99.1799 628.086 97.805 628.668 96.4076C628.532 96.3355 628.397 96.2679 628.262 96.1957C627.996 96.5023 627.658 96.7773 627.468 97.1244C625.295 101.186 622.748 104.819 618.281 106.766C617.077 107.289 616.572 108.497 616.775 110.264C617.163 113.618 617.429 117.148 615.003 120.109C614.187 121.106 614.102 122.251 614.985 123.332C616.297 124.946 617.636 126.542 618.898 128.196C622.406 132.803 625.692 137.577 626.819 143.374C628.42 151.619 628.244 159.809 625.435 167.847C625.196 168.523 625.616 169.433 625.728 170.231C627.667 168.644 628.785 166.99 630.178 165.606C632.427 163.37 634.749 161.121 638.337 161.4C639.46 161.486 640.195 161.648 640.411 163.127C640.808 165.85 639.347 167.725 638.085 169.794C636.949 171.66 634.641 172.719 635.24 175.785C635.872 179.003 635.452 182.438 635.439 185.774C635.434 187.352 635.308 188.929 635.24 190.503C635.475 190.561 635.714 190.62 635.948 190.678C636.66 189.083 637.341 187.478 638.09 185.9C639.618 182.691 640.921 181.194 642.674 182.772C644.356 184.291 646.317 186.157 646.831 188.199C649.067 197.106 650.721 206.145 650.298 215.412C650.203 217.504 650.108 219.596 650.014 221.768C650.343 221.642 650.518 221.629 650.591 221.534C650.771 221.3 650.942 221.047 651.046 220.772C653.629 213.83 653.755 206.622 652.768 199.45C651.745 192.017 650.185 184.652 650.771 177.097C650.875 175.758 651.655 174.473 652.123 173.161C652.714 174.333 653.223 175.555 653.909 176.668C654.833 178.174 654.792 180.414 657.542 181.275C656.933 171.822 656.483 162.69 658.94 153.71C662.677 164.727 665.476 175.852 665.463 187.618C666.126 186.698 666.486 185.765 666.473 184.841C666.365 178.26 666.288 171.669 665.972 165.097C665.806 161.63 665.188 158.186 664.737 154.734C664.295 151.357 663.759 147.994 663.358 144.614C662.835 140.196 662.573 135.742 661.883 131.352C661.054 126.091 660.847 120.84 661.608 115.593C661.942 113.298 662.46 110.999 664.327 109.21C665.521 108.065 666.725 107.947 667.622 108.984C668.939 110.503 670.012 112.284 670.958 114.074C676.12 123.824 677.563 134.291 676.828 145.164C676.751 146.309 676.819 147.467 676.819 148.616C682.305 133.574 682.143 118.536 676.855 103.368C677.752 103.593 678.343 103.927 678.861 104.346C681.286 106.302 683.626 108.371 686.133 110.219C687.445 111.189 689.031 111.788 690.497 112.554L691.11 111.68C690.429 110.986 689.762 110.273 689.072 109.593C687.12 107.677 684.884 105.978 683.256 103.823C679.289 98.5758 677.982 92.4543 678.762 86.0127C679.073 83.4343 679.934 80.8153 682.075 78.931C684.23 77.0378 687.147 75.9108 689.617 79.5396C691.326 82.0549 691.98 85.296 693.044 88.235C693.449 89.3575 693.684 90.5385 693.999 91.6925C694.414 91.6159 694.829 91.5392 695.239 91.4581C695.018 88.2891 695.077 85.0661 694.5 81.9602C693.873 78.5749 692.773 75.2572 691.651 71.9891C691.001 70.1003 691.7 69.2168 693.129 68.1214C695.086 66.6248 697.236 65.0336 698.435 62.9781C700.928 58.7092 700.383 55.1346 697.52 52.5516H697.498Z" fill="black"/>
<path d="M83.0983 110.224C83.2967 108.173 82.3815 107.429 81.0246 106.41C78.9328 104.833 76.8996 103.12 75.1144 101.208C73.7484 99.7433 72.8107 97.8771 71.4628 95.8622C71.4177 96.5248 71.3231 96.7727 71.3997 96.9305C74.0415 102.065 75.1369 107.56 75.2992 113.294C75.4615 119.091 74.9837 124.73 70.7866 129.229C69.8805 130.198 68.3342 131.104 67.0854 131.104C64.8268 131.104 64.4527 132.059 64.4617 133.948C64.4707 135.869 64.4842 137.874 63.9748 139.696C63.4474 141.571 62.5322 143.451 61.3466 144.992C59.8454 146.944 56.6085 146.381 55.3237 144.1C53.6106 141.057 53.3086 137.762 53.6332 134.309C53.8135 132.389 52.993 130.283 53.4754 128.494C55.0442 122.665 57.0233 116.949 58.795 111.175C59.0609 110.31 59.088 109.367 59.2232 108.457C53.4528 112.771 51.8434 119.492 48.5254 125.433C48.0656 124.77 47.9168 124.658 47.9168 124.541C47.8627 116.81 48.7103 109.322 53.7864 102.975C54.1065 102.574 54.0524 101.88 54.1651 101.366C51.3836 101.903 48.9086 102.782 46.4382 102.768C40.7624 102.732 36.8223 99.527 34.3068 94.6856C30.9122 88.1449 29.2892 81.1218 29.3659 73.7246C29.3974 70.6097 29.1495 70.3573 26.0028 69.9831C24.0418 69.7532 22.6217 68.7345 22.6803 66.7646C22.7525 64.4341 23.0365 62.0269 23.7442 59.8181C25.011 55.8738 25.6332 52.7139 21.8508 50.0543C20.9447 49.4187 20.1783 48.5307 19.4886 47.6517C16.9775 44.4467 14.2366 41.3994 14.9624 36.7384C15.278 34.7054 14.8091 32.5462 14.6964 30.4456C14.3718 30.405 14.0473 30.3599 13.7227 30.3193C13.5198 30.8693 13.1727 31.4147 13.1501 31.9737C13.0825 33.5469 12.8616 35.1967 13.2403 36.6798C13.6641 38.3612 13.1276 39.3529 11.942 40.3175C10.3867 41.5887 10.2063 42.9906 11.2793 44.7802C12.4288 46.6915 13.637 48.6118 13.4657 51.0776C13.3936 52.1279 13.8354 53.2909 14.3087 54.2781C14.71 55.1165 15.4989 55.7656 16.1075 56.5049C17.78 58.5379 17.5591 60.7557 15.5349 62.3425C12.5686 64.6685 5.71623 62.8158 4.72444 59.2276C4.25559 57.5327 4.64329 55.6169 4.53059 53.8093C4.48551 53.0565 4.13838 52.3217 3.93101 51.5779C3.42159 51.889 2.84455 52.1324 2.41177 52.5291C0.0450004 54.6703 -0.482451 57.7896 0.405651 60.7602C1.46957 64.3214 3.82281 66.5257 6.90638 68.2476C8.22726 68.9869 8.97561 69.9155 8.29488 71.7276C7.26252 74.4728 6.59982 77.3578 5.79287 80.1887C4.71993 83.9482 4.05273 87.7211 5.59902 91.6204C6.11745 90.9983 6.46007 90.3266 6.67195 89.6144C7.46538 86.9323 8.23627 84.2412 8.9711 81.541C9.64732 79.0437 11.3875 77.6147 13.7993 77.3082C16.0894 77.0152 17.8161 78.4216 18.9566 80.2653C22.3107 85.6701 21.9094 91.5392 20.1422 97.1964C18.4562 102.588 14.7866 106.78 10.1928 110.125C9.63379 110.53 9.34978 111.31 8.93503 111.919C9.10634 112.099 9.27765 112.279 9.45347 112.46C14.7145 110.702 18.321 106.338 23.0545 103.318C17.7574 118.505 17.6132 133.556 22.8967 148.625C23.1762 147.882 23.1807 147.129 23.1762 146.372C23.1356 141.72 22.5811 137.004 23.1717 132.434C24.159 124.793 26.7512 117.549 30.6056 110.814C32.4494 107.6 34.5818 107.506 36.6104 110.571C38.7293 113.771 38.5715 117.522 38.7293 121.065C38.8916 124.743 38.2514 128.467 37.9043 132.163C37.4805 136.666 37.0838 141.17 36.5203 145.655C35.7178 152.038 34.4736 158.38 33.9732 164.786C33.4457 171.565 33.5404 178.39 33.4367 185.197C33.4232 186.013 33.874 186.833 34.1084 187.654C34.3789 187.631 34.6494 187.609 34.9154 187.586C34.442 175.839 37.1965 164.709 40.9969 153.724C43.4403 162.735 42.9444 171.89 42.7731 181.144C43.6747 180.712 44.3464 180.247 44.6259 179.612C45.3697 177.935 45.8927 176.163 46.6185 174.477C46.8439 173.959 47.448 173.607 47.8808 173.179C48.1738 173.648 48.6652 174.094 48.7238 174.586C48.9717 176.799 49.391 179.048 49.2107 181.244C48.5209 189.763 47.448 198.251 46.9025 206.78C46.6816 210.242 47.3353 213.785 47.8267 217.256C48.0476 218.825 48.8455 220.317 49.382 221.841C49.5713 221.786 49.7607 221.728 49.9545 221.674C49.8553 220.461 49.7336 219.249 49.666 218.036C49.2783 211.13 49.7201 204.265 51.0635 197.499C51.9651 192.964 52.15 188.163 55.4635 184.345C57.0774 182.483 58.9437 181.6 60.0437 182.939C60.8191 183.881 61.2789 185.093 61.8425 186.207C62.5908 187.69 63.3031 189.191 64.0289 190.687C64.2182 190.629 64.4121 190.57 64.6014 190.516C64.6014 189.817 64.6014 189.123 64.6014 188.424C64.5789 184.187 64.4211 179.945 64.5969 175.722C64.6645 174.09 64.5518 172.94 63.3842 171.611C61.8515 169.871 60.6072 167.779 59.656 165.651C58.3532 162.721 59.638 161.035 62.7306 161.513C64.1912 161.739 65.76 162.361 66.9096 163.271C69.4702 165.291 71.7964 167.599 74.321 169.889C74.357 169.442 74.7132 168.514 74.4562 167.811C72.2833 161.964 71.8189 155.883 72.2427 149.77C72.4816 146.322 73.0091 142.738 74.2533 139.547C76.4398 133.935 79.8975 128.999 84.0585 124.586C85.2306 123.341 86.2675 121.8 84.888 120.087C82.4762 117.103 82.7872 113.596 83.1163 110.233L83.0983 110.224Z" fill="black"/>
<path d="M536.319 139.434C537.076 138.713 537.369 137.378 537.608 136.269C538.465 132.294 538.735 128.124 540.137 124.364C541.143 121.673 541.323 119.005 541.553 116.336C541.873 112.577 541.413 108.759 541.611 104.981C542.152 94.523 543.473 84.1822 546.836 74.1885C547.03 73.6115 546.863 72.9128 546.863 72.2727C546.011 72.719 545.547 73.2148 545.353 73.8054C543.784 78.5655 542.265 83.3438 540.746 88.122C540.547 88.7486 540.39 89.3977 540.295 90.0513C539.533 95.2533 538.852 100.473 538.005 105.662C537.617 108.046 536.905 110.377 536.341 112.734C536.17 112.716 535.999 112.698 535.827 112.685C534.507 109.115 533.186 105.544 531.865 101.974C531.63 102.051 531.391 102.123 531.157 102.2C531.495 103.922 531.928 105.635 532.153 107.37C532.663 111.283 533.371 115.209 533.402 119.131C533.425 121.691 532.897 124.527 531.721 126.763C529.904 130.215 527.203 133.195 525.107 136.522C524.246 137.883 523.705 139.055 521.902 137.843C521.834 139.226 521.78 140.385 521.722 141.543C521.519 141.616 521.311 141.692 521.108 141.764C520.667 141.061 520.225 140.358 519.747 139.596C516.767 139.713 516.393 145.911 512.065 143.099C510.338 145.001 509.838 147.868 506.394 148.571C507.088 145.177 506.48 142.026 509.157 139.519C510.803 137.978 511.813 135.751 513.107 133.835L512.75 133.655C511.547 134.263 510.343 134.867 509.144 135.476C508.95 135.332 508.752 135.188 508.558 135.039C510.014 127.101 512.426 119.217 510.325 110.832C507.827 111.86 507.336 109.949 506.885 108.317C505.213 102.267 503.63 96.1909 502.062 90.1144C501.629 88.433 501.363 86.7111 501.02 85.0071C504.762 86.4045 505.154 90.2001 507.656 92.5396C505.718 82.2619 504.906 71.8039 501.764 61.7741C501.872 64.1542 501.976 66.5343 502.084 68.9099C501.881 68.9595 501.678 69.0091 501.476 69.0587C499.235 65.741 496.963 62.4593 495.741 58.5331C494.754 55.3551 493.32 52.389 490.521 50.1847C493.041 55.5399 492.622 61.1205 492.094 66.8859C491.161 66.3135 490.219 65.6508 489.957 64.7898C489.056 61.8192 488.424 58.772 487.622 55.7698C487.04 53.5926 487.455 51.2395 485.192 49.4003C483.79 48.2644 482.992 45.8392 482.771 43.8919C482.163 38.5231 483.073 33.2175 484.295 27.9795C485.237 23.936 486.148 19.879 487.072 15.8311C486.306 16.3585 485.629 16.9535 485.418 17.6837C483.686 23.5754 481.743 29.4265 480.454 35.4173C479.305 40.75 478.791 46.2359 478.232 51.6768C477.911 54.7871 477.38 58.0012 479.192 60.9627C479.764 61.8959 480.102 62.9777 480.49 64.0145C481.369 66.345 482.785 68.6485 482.956 71.0376C483.416 77.4206 484.597 83.5647 487.672 89.1768C489.529 92.5712 490.57 96.1097 491.229 99.8692C491.63 102.164 492.41 104.391 493.018 106.649C493.14 106.613 493.257 106.572 493.379 106.536C493.474 105.621 493.564 104.706 493.658 103.791C493.852 103.741 494.051 103.692 494.244 103.638C494.56 104.278 494.997 104.886 495.178 105.563C496.719 111.359 497.535 117.233 496.553 123.219C496.449 123.851 495.777 124.391 495.155 125.284C495.71 126.519 496.111 128.417 497.229 129.693C499.167 131.915 498.937 133.993 497.959 136.436C495.876 141.634 493.41 146.452 487.843 148.805C487.464 148.963 487.045 149.856 487.171 150.23C487.924 152.443 486.838 153.732 485.35 155.215C482.834 157.722 480.405 160.381 478.358 163.271C476.83 165.43 476.14 168.162 474.765 170.447C471.176 176.402 468.282 182.636 466.393 189.33C464.721 195.258 463.941 201.28 464.392 207.46C464.761 206.735 464.942 205.973 465.09 205.202C465.64 202.371 465.92 199.455 466.776 196.718C468.106 192.463 470.162 188.645 472.889 184.935C476.316 180.274 479.773 175.757 484.137 171.989C485.034 171.214 486.499 170.339 487.473 170.555C489.488 171.002 490.872 170.28 492.365 169.266C492.703 169.036 493.28 169.149 494.321 169.054C493.086 172.611 491.995 175.757 490.904 178.89C491.837 178.372 492.766 177.858 493.694 177.344C493.974 178.48 494.253 179.611 494.537 180.747C494.628 181.104 494.722 181.464 494.858 181.802C495.579 183.578 496.602 185.291 496.99 187.135C498.703 195.28 498.306 203.43 496.309 211.472C495.71 213.893 494.506 216.165 493.577 218.504C496.737 215.002 499.294 211.062 500.146 206.491C501.778 197.742 502.787 188.875 504.343 180.107C505.664 172.665 509.112 166.395 515.261 161.653C519.31 158.533 523.773 161.409 524.958 164.93C525.242 154.679 529.106 146.331 536.319 139.447V139.434Z" fill="black"/>
<path d="M475.143 140.078C475.536 139.718 475.707 139.082 475.914 138.546C477.875 133.402 479.823 128.25 481.77 123.102C481.928 122.687 482.136 122.273 482.194 121.84C483.42 113.167 484.624 104.49 485.823 95.9024C485.58 96.3261 485.16 96.9031 484.885 97.5477C481.549 105.436 478.227 113.329 474.923 121.227C473.782 123.959 473.133 127.01 471.51 129.409C468.435 133.952 464.847 138.149 461.394 142.427C460.844 143.112 459.883 143.468 458.765 144.203C458.738 144.857 458.68 146.087 458.594 148.053C457.629 146.908 457.111 146.295 456.633 145.731C453.369 146.182 452.72 151.726 448.374 149.806C447.612 150.978 447.022 152.132 446.197 153.079C445.444 153.94 444.43 154.575 443.532 155.306C443.532 153.985 443.496 152.66 443.559 151.343C443.578 151.019 443.92 150.703 444.119 150.392C446.359 146.876 448.6 143.36 450.854 139.821C449.839 137.793 448.893 135.593 447.675 133.551C446.706 131.919 446.95 130.441 447.572 128.854C448.383 126.79 449.379 124.761 449.889 122.62C450.277 120.993 450.11 119.207 450.029 117.499C449.979 116.485 449.244 115.394 449.461 114.492C450.277 111.08 452.021 108.105 454.78 105.905C455.393 105.418 456.75 105.4 457.539 105.716C458.558 106.126 459.36 107.091 460.826 108.281C458.567 98.7378 457.291 89.6636 454.338 80.9817C453.171 77.5468 452.774 74.0623 452.878 70.4606C452.914 69.1398 452.77 67.6973 452.26 66.5028C450.66 62.7388 449.682 59.0018 450.543 54.8367C451.106 52.1005 451.129 49.2561 451.413 46.2674C444.479 46.2809 439.836 41.8769 434.908 37.04C437.189 41.958 439.281 46.2133 441.143 50.5723C443.136 55.2289 444.29 60.0161 442.302 65.0422C442.054 65.6643 442.067 66.5568 442.315 67.1834C445.66 75.5859 444.714 84.1777 443.514 92.7785C443.42 93.4456 442.996 94.0632 442.725 94.7078C442 94.2661 441.017 93.9956 440.598 93.3555C439.11 91.0881 437.816 88.699 436.053 85.6878C436.82 91.9085 437.51 97.5747 438.217 103.241C438.885 108.623 439.592 113.997 440.21 119.383C440.278 119.96 439.84 120.6 439.633 121.209C439.178 120.826 438.668 120.492 438.285 120.05C437.848 119.546 437.649 118.766 437.135 118.414C435.652 117.395 434.029 115.759 432.519 115.822C431.09 115.881 429.738 117.783 428.435 118.806C430.166 119.582 431.676 119.888 432.672 120.776C436.008 123.751 435.58 127.944 434.498 131.387C432.695 137.121 432.276 142.833 432.6 148.693C432.835 152.903 432.167 156.951 431.027 160.985C430.427 163.104 430.031 165.331 429.927 167.531C429.652 173.359 429.485 179.197 429.454 185.03C429.417 191.999 427.763 198.373 423.331 203.899C422.926 204.409 422.872 205.198 422.655 205.856C422.845 205.973 423.034 206.095 423.223 206.212C425.171 204.945 427.114 203.674 429.598 202.056C429.26 204.035 429.192 205.536 428.741 206.91C426.447 213.893 425.924 221.159 425.477 228.39C425.004 236.071 425.797 243.712 427.659 251.208C427.817 251.839 428.286 252.394 428.615 252.984C428.804 252.899 428.998 252.817 429.188 252.732C429.093 251.871 429.102 250.983 428.89 250.153C427.127 243.252 426.897 236.297 427.628 229.215C428.421 221.52 430.355 214.109 432.564 206.757C434.345 200.834 436.396 194.992 438.479 188.659C441.828 198.512 444.488 208.164 440.976 218.477C444.939 214.159 445.908 209.047 445.543 203.363C445.237 198.58 445.48 193.766 445.48 188.722C446.598 189.29 447.639 189.813 448.681 190.34C448.451 189.326 447.856 188.758 447.45 188.073C446.521 186.517 444.952 184.908 444.943 183.312C444.907 176.204 447.77 170.226 453.41 165.831C454.704 164.822 456.683 164.195 458.315 164.263C459.879 164.326 461.403 165.516 462.787 166.142C463.156 156.076 467.34 147.241 475.143 140.078Z" fill="black"/>
</g>
<defs>
<clipPath id="clip0_3020_39">
<rect width="700" height="262" fill="white"/>
</clipPath>
</defs>
</svg>
