<?xml version="1.0" encoding="UTF-8"?><svg xmlns="http://www.w3.org/2000/svg" viewBox="0 0 406.82 564.64"><defs><style>.d{fill:#ce7878;}.e{fill:#a84747;}.f{fill:#c1813a;}.g{fill:#ebebeb;}.h{fill:#515151;}.i{fill:#6d4924;}</style></defs><g id="a"/><g id="b"><g id="c"><g><path class="e" d="M39.53,471.62c.28,3.44,.63,6.95,2.07,10.09,1.75,3.83,4.94,6.77,8.05,9.61,22.74,20.72,45.89,41.73,73.54,55.23,38.08,18.59,83.57,21.42,123.65,7.68,15.46-5.3,30.8-13.57,39.54-27.38,9.52-15.04,9.69-33.95,9.56-51.74-.13-17.84-.26-35.67-.39-53.51-.06-8.44-.13-16.97-2.08-25.19-6.54-27.65-33.68-46.68-61.61-51.89-27.93-5.21-56.64,.8-84.18,7.79-22.58,5.72-45.88,12.6-63.08,28.3-7.63,6.97-13.82,14.18-22.98,19.22-6.03,3.32-14.04,4.26-18.51,10.04-10.67,13.79-4.91,45.64-3.59,61.75Z"/><path class="d" d="M353.18,290.93c19.02,21.96,27.52,49.35,33.52,78.37,2.09,10.11,4.05,20.43,3.01,30.7-3.08,30.64-32.7,53.17-63.02,58.5-30.32,5.33-61.24-2.59-91.01-10.45-29.77-7.86-60.68-15.79-91-10.48,18.68-23.08,38.37-45.35,59-66.72,3.8-3.93,7.65-7.86,12.11-11.03,19.8-14.09,46.66-10.66,70.63-6.63-14.67-1.92-25.56-14.93-31.24-28.58-7.14-17.17-5.28-33.61-13.02-50.9-4.92-10.99-5.65-23.81-2.02-35.29,.74-2.33,1.72-4.71,3.57-6.31,3.82-3.29,9.64-2.09,14.45-.55,32.14,10.3,61.93,27.82,86.68,50.75,2.99,2.77,5.76,5.64,8.34,8.62Z"/><path class="e" d="M228.13,213.42c-13.33-3.74-27.49-4.49-41.35-3.5-27.4,1.96-53.77,10.45-79.26,20.24-22.56,8.67-36.42,32.61-51.46,50.81-13.12,15.86-24.53,32.73-31.22,52.34-7.21,21.15-11.38,43.36-13.02,65.62-.03,.4-.05,.8-.08,1.2,8.8,5.08,15.67,13.72,22.13,21.22,7.8,9.04,16.33,21.12,27.82,25.67,11.22,4.44,24.46,5.06,36.37,4.74,10-.27,23.61-.94,31.59-7.87,2.17-1.89,4.73-1.88,6.77-.87,6.75-15.44,16.6-29.71,26.95-40.75,17.08-18.23,39.19-28.5,62.84-35.74,14.05-4.3,28.79-7.08,43.53-6.74,9.35,.22,18.53,1.94,27.73,3.35-1.36-13.73-4.45-26.55-8.18-39.63-4.13-14.45-5.36-30.34-7.87-45.17-1.65-9.77-3.35-19.68-7.51-28.68-7.14-15.42-21.22-26.98-37-33.27-2.88-1.15-5.81-2.13-8.78-2.96Z"/><path class="g" d="M6.33,362.11c-4.34,12.36-7.32,25.48-6.02,38.52,1.55,15.59,9.06,29.94,17.47,43.17,6.33,9.97,13.6,19.87,23.9,25.63,8.85,4.95,19.23,6.42,29.37,6.61,34.03,.66,67.16-12.03,96.34-29.56,29.18-17.53,55.11-39.86,81.98-60.76,8.91-6.93,18.32-13.9,29.35-16.3,11.03-2.4,24.15,1.05,29.67,10.9-2.8-11.6-11.96-20.9-22.59-26.33s-22.65-7.44-34.52-8.63c-37.01-3.71-74.76,0-110.33,10.87-5.95,1.82-12.2,3.85-18.28,2.51s-11.55-7.58-9.59-13.49c.87-2.61,2.94-4.6,4.94-6.49,11-10.46,21.73-21.6,28.69-35.09s9.81-29.78,4.49-44c-13.86-37.08-56.09-21.97-76.36-.53-28.06,29.68-54.87,64.07-68.52,102.97Z"/><path class="f" d="M131.12,167.6c4.53,7.81,11.13,14.17,16.77,21.21,6.07,7.58,11.08,16.03,17.84,23,16.29,16.82,42.08,23.14,64.78,17.37,22.7-5.76,41.87-22.81,51.86-43.99,8.17-17.31,10.48-36.73,16.01-55.06,2.3-7.61,5.19-15.3,4.76-23.24-.6-11.05-7.71-20.93-16.6-27.53-8.89-6.6-19.47-10.43-29.89-14.18-10.11-3.64-20.45-7.31-31.19-7.56-18.74-.43-36,9.5-51.83,19.54-28.5,18.06-63.45,54.36-42.52,90.42Z"/><path class="i" d="M173.15,111.24c-.28,.78-.52,1.57-.71,2.35-1.46,6.09-1.15,12.62-3.58,18.39-3.96,9.43-15.65,14.81-25.39,11.69,4.06,12.67,9.21,30.84,4.55,44.01-2.08,5.88-7.81,10.96-13.99,10.12-3.65-.5-6.72-2.87-9.59-5.17-5.35-4.26-10.71-8.53-16.06-12.79-10.51-8.37-21.94-18.52-22.29-31.95-.39-15.53,14.29-27.44,17.5-42.64,1.53-7.22,.5-15.28,4.51-21.48,3.35-5.17,9.46-7.81,13.73-12.24,4.83-5.02,7.59-12.55,14.08-15.08,3.27-1.28,6.94-1.01,10.33-1.93,7.93-2.17,7.52-7.68,10.91-13.28,3.75-6.2,8.29-9.97,15.06-13.36,9.18-4.59,19.47-6.34,29.59-8.03l43.76-7.33c1.59-.27,3.29-.52,4.77,.13,2.63,1.15,3.32,4.45,4.65,6.99,4.14,7.91,14.88,8.8,23.81,9.03s19.85,2.29,22.61,10.79c1.87,5.75-.42,13.62,4.66,16.91,3.03,1.97,7.03,.93,10.59,1.53,7.39,1.24,11.63,9.29,12.72,16.7,1.45,9.84-.62,19.86-.06,29.79s4.83,20.83,14.1,24.41c-4.9,4.03-13.72-1.32-18.15,3.22-1.55,1.59-1.98,3.94-3.16,5.81-2.36,3.78-7.49,5.07-11.85,4.14s-8.11-3.65-11.58-6.45c-9.96-8.04-21.73-18.01-26.04-30.21-3.49-9.88-3.81-25.39-19.03-23.69-13.55,1.52-20.89,10.38-26.92,21.58-3.96,7.36-10.9,15.2-19.06,13.39-9.27-2.06-13.55-15.59-23.05-15.5-5.46,.05-9.5,4.88-11.42,10.15Z"/><path class="h" d="M173.82,154.21c3.07-6.93,9.13-13.01,15.93-16.3s13.22-2.92,20.26-4.19c.6-.11,3.49-2.42,2.49-3.07-6.76-4.39-18.79,.87-24.86,4.53-8.1,4.88-13.67,11.64-16.97,20.42-.84,2.23,2.71-.4,3.15-1.38h0Z"/><path class="h" d="M245.04,131.11c11.25,2.91,20.79,9.28,31.62,13.41s22.08,7.82,33.23,11.41c2.98,.96,9.95-7.5,6.85-8.5-11.32-3.64-22.66-7.2-34.14-10.28s-24.23-3.77-35.75-8.28c-.82-.32-2.59,2.04-1.81,2.24h0Z"/><path class="h" d="M168.87,191.84c12.05,14.81,34.46,21,52.69,22.87,20.6,2.12,40.48-1.33,58.55-11.55,.96-.54,6.21-7.06,2.72-6.2-17.35,4.29-35.42,6.96-53.27,4.7-9.03-1.14-17.78-3.49-26.35-6.52-9.19-3.24-17.65-8.11-26.63-11.86-2.57-1.07-9.7,6.12-7.71,8.57h0Z"/><path class="h" d="M134.97,220.45c-21.71,4.18-41.84,15.22-59.31,28.59-19.2,14.68-35.71,33.25-47.93,54.1C2.84,345.59-5.59,398.42,9.56,445.71c7.09,22.13,19.85,42.02,38.7,55.91,21.28,15.68,47.5,25.73,72.02,35.13,25.92,9.94,52.99,18.48,80.17,24.2,24.45,5.15,50.43,6.02,73.56-4.71,20.44-9.48,39.99-28.1,43.04-51.42,2.65-20.26-6.65-42.48-26.58-50.02-3.4-1.29-11.8,8.67-8.08,10.03,16.48,6.04,25.51,23.59,25.48,40.51-.03,19.95-13.58,34.9-31.23,42.41-21.35,9.09-45.34,7.34-67.49,2.4-24.35-5.43-48.07-14.45-71.06-24.04s-46.09-19.17-66.77-32.65c-17.92-11.68-31.52-27.42-41.23-46.42-20.07-39.27-18.25-88.2-1.42-128.23,9.15-21.77,23.01-41.47,40.85-57.01,18.46-16.09,40.06-27.31,62.73-36.28,1.15-.45,5.4-5.59,2.73-5.08h0Z"/><path class="h" d="M194.49,447.33c18.11,3.79,36.04,8.04,54.51,9.74s36.56,1.97,54.8,.43c30.2-2.55,66.62-6.57,88.33-30.3s15.3-58.8,5.11-86.91c-9.74-26.9-27-51.8-47.3-71.78-11.49-11.31-24.27-21.3-38.07-29.64s-29.22-17.1-45.09-18.67c-2.49-.25-11.61,7.58-8.53,9.48,11.19,6.91,24.19,10.61,35.73,17.08,11.5,6.44,22.35,14.01,32.4,22.54,20.27,17.2,37.35,38.3,49.75,61.84,6.25,11.87,11.57,24.57,15.63,37.36,4.39,13.83,6.55,30.58,1.74,44.57-4.44,12.92-15.65,19.38-28.01,23.51-14.61,4.87-30.41,6.78-45.67,8.23-19.56,1.87-39.35,2.39-58.97,1.31s-39.81-2.78-58.94-7.98c-3.51-.95-10.52,8.55-7.42,9.2h0Z"/><path class="h" d="M138.35,246.4c3.15,6.26,4.23,13.68,5.42,20.56s1.66,13.21,1.54,19.86c-.23,13.58-3.22,27.29-8.85,39.66-4.9,10.77-11.94,20.7-20.62,28.75-4.09,3.79-8.6,7.16-13.35,10.1-5.16,3.19-10.63,5.67-15.1,9.85-.36,.34-2.43,2.74-1.45,3.3,4.08,2.35,11.79-3.77,15.1-5.92,5.55-3.61,10.78-7.68,15.66-12.15,10.21-9.35,18.83-20.28,25.22-32.57,6.85-13.18,10.75-27.73,11.39-42.56,.32-7.39-.08-14.79-1.31-22.08-1.35-8.04-4.57-15.09-7.06-22.77-.78-2.4-8.05,3.14-6.63,5.96h0Z"/><path class="h" d="M123.1,392.2c-2.59-7.02-4.27-14.18-5.86-21.48-.78-3.59-1.39-7.21-1.88-10.85-.39-2.93-.1-6.6-3.02-8.13-2.62-1.38-6.46,3.22-7.34,5.3-3.01,7.1-.92,14.58,.83,21.83s4.71,14.18,7.82,20.94c1.61,3.51,10.59-4.48,9.44-7.61h0Z"/><path class="h" d="M298.63,354.27c-60.04-24.7-125.27-7.03-184.77,9.9-.31,.09-.99,1.05-.59,.94,59.31-16.66,124.27-33.99,183.93-9.07,.58,.24,2.09-1.5,1.43-1.77h0Z"/><path class="h" d="M39.84,482.23c8.16,2.93,18.36,1.13,26.71-.26,9.5-1.59,18.78-4.28,27.8-7.62,18.45-6.83,35.68-16.66,52.23-27.18,16.48-10.48,32.08-22.22,48.35-32.99s33.44-21.95,51.69-29.4c9.89-4.04,20.13-7.19,30.67-9.02,5.54-.96,11.21-1.7,16.84-1.6s11.21,1,16.89-.2c2.18-.46,13.11-9.02,9.3-11.5s-7.97-2.09-12.31-1.86c-5.14,.27-10.31,.75-15.4,1.47-9.46,1.33-18.69,3.78-27.72,6.87-18.63,6.37-36.71,15.38-53.31,25.93-33.54,21.32-64.16,47.73-100.77,63.91-9.77,4.32-19.86,7.83-30.31,10.11-11.25,2.46-22.61,2.16-33.91,3.95-2.14,.34-10.72,7.98-6.75,9.41h0Z"/><path class="h" d="M278.14,272.56c1.6,4.38,2.06,8.73,3.21,13.19,1.06,4.11,2.73,8.23,4.18,12.21,2.71,7.4,5.14,14.89,7.22,22.49s3.84,15.22,5.52,22.87c1.46,6.65,1.83,16.13,6.5,21.42,1.57,1.78,5.4-3.44,5.69-4.6,2.1-8.48,.61-17.4-.97-25.86-1.49-7.99-3.58-15.79-6.04-23.53s-5.14-15.33-8.36-22.71c-1.45-3.33-3.04-7.09-5.15-10.03-2.34-3.26-5.24-5.98-7.47-9.36-.81-1.22-4.81,2.61-4.34,3.91h0Z"/><path class="h" d="M193.67,2.6c-4.2,1.57-8.36,2.67-12.46,4.55s-8.08,3.82-12,5.94c-8.43,4.56-16.5,9.76-24.17,15.5-15.17,11.35-28.56,25.2-38.83,41.16-19.37,30.1-27.16,69.05-11.36,102.4,7.86,16.59,20.88,32.26,38.65,38.34,2.5,.86,9.85-6.76,7.5-8.34-12.45-8.36-23.63-17.69-31.55-30.62s-12.54-28.28-13.08-43.59c-1.22-35.01,17.24-67.83,43.65-89.75,15.35-12.74,33.57-23.12,51.74-31.24,1.33-.59,5-5.5,1.91-4.34h0Z"/><path class="h" d="M114.37,122.41c14.39,2.88,30.7,7.52,45.41,5.14,1.42-.23,7.84-5.38,5.62-6.94-5.24-3.68-13.52-4.47-19.73-5.36-7.78-1.11-15.59-1.85-23.4-2.63-3.42-.34-11.49,9.07-7.89,9.79h0Z"/><path class="h" d="M160.51,101.59c14.23,4.11,27.7,10.75,42.26,13.76s27.55-.39,38.2-10.36c2.59-2.42,4.87-5.11,6.89-8.02,2.4-3.46,4.18-7.67,7.02-10.79,6.58-7.25,13.7,.14,17.12,6.24s7.56,11.78,14.35,15.06c5.98,2.89,13.46,4.12,19.69,1.45,1.23-.53,6.92-5.34,4.14-6.57-3.07-1.36-7.1-.83-10.4-1.84s-6.64-2.72-9.46-4.85c-6.02-4.53-7.93-11.02-12.38-16.73-10.3-13.21-26.21,1.69-32.24,11.38-4.44,7.13-7.79,13.16-16.1,16.38-6.7,2.6-13.76,2.31-20.71,1.06-14.79-2.67-28.57-8.99-43.06-12.76-2.35-.61-7.73,5.91-5.32,6.61h0Z"/><path class="h" d="M200.08,11.21c27.22-7.92,53.91,.39,74.33,19.31,9.84,9.12,18.87,19.11,31.13,25.07,11.3,5.5,25.09,7.61,35.67-.47,.72-.55,5.53-5.64,2.74-6.23-2.37-.5-4.9,.44-7.26,.73-3.23,.4-6.55,.15-9.75-.41-6.58-1.17-12.81-3.92-18.41-7.53-11.41-7.37-20.58-17.72-31.47-25.78C256.61,.74,229.4-3.89,205.02,3.36c-2.27,.68-4.39,2.5-5.58,4.55-.52,.89-1.71,3.99,.65,3.3h0Z"/><path class="h" d="M194.52,58.05c11.23-2,22.61-1.9,33.8,.36,5.22,1.06,10.21,2.69,15.22,4.43,5.7,1.98,11.41,4.89,17.43,5.63,2.26,.28,7.12-4.15,5.86-6.51-5.08-9.53-20.29-13.31-30.02-15.26-11.51-2.32-23.37-2.35-34.94-.36-3.36,.58-6.66,3.99-8.33,6.79-.96,1.61-2.5,5.55,.97,4.93h0Z"/><path class="h" d="M326.65,117.97l17.4,11.07c5.62,3.57,10.96,7.33,17.48,9.02,2.33,.6,8.41-5.1,6.68-7.43-3.93-5.27-9.77-8.4-15.19-11.92l-16.43-10.68c-3.68-2.39-12.67,8.21-9.94,9.94h0Z"/></g></g></g></svg>