<?xml version="1.0" encoding="UTF-8"?>
<svg id="Capa_2" data-name="Capa 2" xmlns="http://www.w3.org/2000/svg" viewBox="0 0 1581.26 902.33">
  <defs>
    <style>
      .cls-1 {
        fill: #6a2771;
      }

      .cls-1, .cls-2, .cls-3 {
        fill-rule: evenodd;
      }

      .cls-2 {
        fill: #f58020;
      }

      .cls-3 {
        fill: #000002;
      }
    </style>
  </defs>
  <g id="Capa_1-2" data-name="Capa 1">
    <g>
      <path class="cls-3" d="m322.76,623.55v-7.43c0-104.7-53.28-156.74-161.69-156.74S0,511.42,0,616.12v282.5h60.71v-157.98h4.96c23.54,24.78,48.94,39.65,105.32,39.65,102.84,0,151.78-50.18,151.78-156.74h0Zm-262.05-1.86v-3.72c0-76.2,29.74-109.65,100.36-109.65s100.98,33.45,100.98,109.65v3.72c0,76.2-30.36,109.65-100.98,109.65s-100.36-33.45-100.36-109.65h0Zm614.56,136.91v-293.65h-60.71v180.28c0,60.09-27.26,86.11-90.45,86.11s-89.83-26.02-89.83-86.11v-180.28h-60.71v182.76c0,91.69,42.13,132.58,135.05,132.58,49.56,0,81.15-11.77,100.98-35.93h4.96v28.5c0,55.76-28.5,80.54-105.94,80.54-30.36,0-69.39-3.72-100.36-9.29v47.08c37.17,7.43,71.24,11.15,105.32,11.15,116.47,0,161.69-45.84,161.69-143.73h0Zm55.76-179.04v195.15h60.71v-192.67c0-51.42,27.26-73.72,78.06-73.72s77.44,22.3,77.44,73.72v192.67h60.71v-192.67c0-51.42,27.26-73.72,78.06-73.72s77.44,22.3,77.44,73.72v192.67h60.71v-195.15c0-83.63-45.84-120.19-138.15-120.19-52.04,0-81.78,12.39-105.94,45.22h-4.96c-24.16-32.83-53.28-45.22-105.32-45.22-92.93,0-138.77,36.55-138.77,120.19h0Zm848.11,29.12c0-95.4-48.94-149.3-151.78-149.3s-156.73,52.04-156.73,156.74v7.43c0,105.94,53.28,156.74,167.27,156.74,34.69,0,76.2-4.96,116.47-14.25v-47.08c-30.36,6.81-79.92,12.39-111.51,12.39-69.39,0-103.46-25.4-110.27-84.87h219.93c22.3,0,26.64-9.29,26.64-37.79h0Zm-247.18-9.29c4.34-63.19,33.45-91.07,95.4-91.07s90.45,31.59,91.07,91.07h-186.47Z"/>
      <path class="cls-3" d="m131.98,230.64H.63v19.2h54.56v137.68h22.01v-137.68h54.79v-19.2h0Zm46.13,13.58c3.28-9.13,9.6-15.69,22.24-15.69s18.97,6.56,22.48,15.69l54.32,143.3h-24.82l-13.11-35.36h-77.5l-13.11,35.36h-24.82l54.32-143.3h0Zm-9.37,88.74h63.45l-28.57-76.8c-.94-3.04-2.58-3.28-3.28-3.28-.47,0-2.11.23-3.28,3.28l-28.33,76.8h0Zm125.5-102.32v121.05c0,20.6,14.99,35.82,35.36,35.82h77.03v-19.2h-71.41c-11.01,0-18.97-8.66-18.97-20.37v-117.31h-22.01Zm133.93,0v121.05c0,20.6,14.99,35.82,35.36,35.82h79.14v-19.2h-73.52c-11.01,0-18.97-8.66-18.97-20.37v-29.27h88.74v-19.2h-88.74v-49.64h92.49v-19.2h-114.5Zm141.89,0v156.88h21.31v-122.22l89.68,122.22h21.31v-156.88h-21.31v122.22l-89.68-122.22h-21.31Zm287.76,0h-131.36v19.2h54.56v137.68h22.01v-137.68h54.79v-19.2h0Zm87.57,158.98c-49.87,0-74.69-26.69-74.69-80.55s24.82-80.55,74.69-80.55,74.93,26.69,74.93,80.55-24.82,80.55-74.93,80.55h0Zm-52.21-80.55c0,40.27,17.56,60.41,52.21,60.41s52.45-20.14,52.45-60.41-17.56-60.41-52.45-60.41-52.21,20.14-52.21,60.41Z"/>
      <path class="cls-2" d="m1219.73,0c40.19,0,72.77,32.58,72.77,72.77s-32.58,72.76-72.77,72.76-72.76-32.58-72.76-72.76S1179.55,0,1219.73,0Z"/>
      <path class="cls-1" d="m1442.62,0c40.19,0,72.76,32.58,72.76,72.77s-32.58,72.76-72.76,72.76-72.76-32.58-72.76-72.76S1402.43,0,1442.62,0Z"/>
      <path class="cls-1" d="m1219.73,168.48c38.43,0,73.33,15.85,98.51,41.32-12.16,15.49-21.49,33.3-27.22,52.62-14.95-23.7-41.36-39.53-71.28-39.53-46.3,0-84.22,37.91-84.22,84.22v50.02c0,14.98-12.23,27.21-27.21,27.21s-27.21-12.23-27.21-27.21v-50.02c0-76.26,62.37-138.64,138.64-138.64Z"/>
      <path class="cls-2" d="m1442.62,168.48c76.26,0,138.64,62.38,138.64,138.64v50.02c0,14.98-12.23,27.21-27.21,27.21s-27.21-12.23-27.21-27.21v-50.02c0-46.31-37.91-84.22-84.22-84.22s-84.22,37.91-84.22,84.22v50.02c0,14.98-12.23,27.21-27.21,27.21s-27.21-12.23-27.21-27.21v-50.02c0-76.26,62.37-138.64,138.64-138.64Z"/>
    </g>
  </g>
</svg>