<svg width="239" height="64" viewBox="0 0 239 64" fill="none" xmlns="http://www.w3.org/2000/svg">
<g clip-path="url(#clip0_378_195)">
<path d="M85.2648 46.9853C84.4445 46.43 83.4956 46.1545 82.4225 46.1545C81.6022 46.1545 80.9016 46.3145 80.3296 46.6343C79.7531 46.9542 79.2343 47.434 78.7776 48.0738V46.4389H76.8354V63.8585H78.9683V57.7276C79.3319 58.1852 79.793 58.5673 80.3606 58.8649C80.9238 59.167 81.5623 59.3136 82.2718 59.3136C83.2428 59.3136 84.1696 59.0382 85.0476 58.4873C85.9255 57.9364 86.5995 57.1456 87.0607 56.1149C87.5218 55.0842 87.7524 53.9247 87.7524 52.6364C87.7524 51.4324 87.544 50.3306 87.1227 49.3221C86.7059 48.3137 86.0851 47.5318 85.2648 46.9809V46.9853ZM84.5598 56.3593C83.8858 57.1634 83.0743 57.5632 82.1254 57.5632C81.1765 57.5632 80.4005 57.1767 79.7487 56.3993C79.0925 55.6262 78.7643 54.4267 78.7643 52.8052C78.7643 51.1836 79.1146 49.9486 79.8108 49.1C80.5114 48.2515 81.314 47.825 82.2185 47.825C83.1231 47.825 83.9213 48.2248 84.5775 49.0245C85.2338 49.8242 85.5664 51.0237 85.5664 52.6275C85.5664 54.3112 85.2294 55.5552 84.5554 56.3593H84.5598Z" fill="#2E6D87"/>
<path d="M100.496 53.7603V50.9126C100.496 49.9663 100.461 49.3088 100.39 48.9445C100.266 48.3581 100.044 47.8739 99.7292 47.4918C99.4143 47.1097 98.9221 46.7898 98.2481 46.5366C97.5786 46.2834 96.705 46.159 95.632 46.159C94.5589 46.159 93.6011 46.3056 92.7808 46.6033C91.9605 46.9009 91.3308 47.323 90.9007 47.8739C90.4661 48.4247 90.1558 49.1444 89.9651 50.0374L92.0491 50.3217C92.2797 49.4288 92.63 48.8068 93.1089 48.4558C93.5878 48.1049 94.3239 47.9272 95.3304 47.9272C96.4035 47.9272 97.2105 48.1671 97.7559 48.6513C98.1595 49.0067 98.359 49.6198 98.359 50.4906C98.359 50.5705 98.359 50.7571 98.3457 51.0459C97.5342 51.3302 96.2661 51.5746 94.5456 51.7789C93.7031 51.8811 93.069 51.9877 92.6522 52.0988C92.0846 52.2587 91.5747 52.4897 91.118 52.8007C90.6657 53.1073 90.2976 53.516 90.0183 54.0269C89.7389 54.5378 89.597 55.102 89.597 55.7151C89.597 56.768 89.9695 57.6299 90.71 58.3052C91.4505 58.9804 92.5147 59.3181 93.8938 59.3181C94.7318 59.3181 95.5122 59.1804 96.2439 58.9049C96.9755 58.6295 97.7338 58.1541 98.5231 57.4833C98.5851 58.0741 98.727 58.5939 98.9487 59.0382H101.175C100.909 58.5539 100.727 58.0519 100.638 57.5277C100.549 57.0035 100.501 55.7462 100.501 53.7648L100.496 53.7603ZM98.3413 53.4982C98.3413 54.4401 98.226 55.1509 97.9998 55.6307C97.6983 56.2571 97.2283 56.7458 96.5898 57.1056C95.9512 57.4655 95.2196 57.6432 94.3993 57.6432C93.5789 57.6432 92.9404 57.4522 92.5103 57.0745C92.0802 56.6969 91.8673 56.2216 91.8673 55.6529C91.8673 55.2797 91.9649 54.9421 92.1644 54.64C92.3595 54.3334 92.6433 54.1024 93.0025 53.9469C93.3661 53.787 93.9869 53.6448 94.8604 53.5204C96.4079 53.2983 97.5653 53.0318 98.3413 52.7163V53.4982Z" fill="#2E6D87"/>
<path d="M105.879 41.6497H103.751V59.0338H105.879V41.6497Z" fill="#2E6D87"/>
<path d="M119.364 53.7603V50.9126C119.364 49.9663 119.328 49.3088 119.257 48.9445C119.133 48.3581 118.911 47.8739 118.597 47.4918C118.282 47.1097 117.79 46.7898 117.116 46.5366C116.446 46.2834 115.572 46.159 114.499 46.159C113.426 46.159 112.469 46.3056 111.648 46.6033C110.828 46.9009 110.198 47.323 109.768 47.8739C109.334 48.4247 109.023 49.1444 108.833 50.0374L110.917 50.3217C111.147 49.4288 111.497 48.8068 111.976 48.4558C112.455 48.1049 113.191 47.9272 114.198 47.9272C115.271 47.9272 116.078 48.1671 116.623 48.6513C117.027 49.0067 117.226 49.6198 117.226 50.4906C117.226 50.5705 117.226 50.7571 117.213 51.0459C116.402 51.3302 115.133 51.5746 113.413 51.7789C112.571 51.8811 111.936 51.9877 111.52 52.0988C110.952 52.2587 110.442 52.4897 109.985 52.8007C109.533 53.1073 109.165 53.516 108.886 54.0269C108.606 54.5378 108.464 55.102 108.464 55.7151C108.464 56.768 108.837 57.6299 109.577 58.3052C110.318 58.9804 111.382 59.3181 112.761 59.3181C113.599 59.3181 114.38 59.1804 115.111 58.9049C115.843 58.6295 116.601 58.1541 117.39 57.4833C117.453 58.0741 117.594 58.5939 117.816 59.0382H120.042C119.776 58.5539 119.594 58.0519 119.506 57.5277C119.417 57.0035 119.368 55.7462 119.368 53.7648L119.364 53.7603ZM117.209 53.4982C117.209 54.4401 117.093 55.1509 116.867 55.6307C116.566 56.2571 116.096 56.7458 115.457 57.1056C114.819 57.4655 114.087 57.6432 113.267 57.6432C112.446 57.6432 111.808 57.4522 111.378 57.0745C110.948 56.6969 110.735 56.2216 110.735 55.6529C110.735 55.2797 110.832 54.9421 111.032 54.64C111.227 54.3334 111.511 54.1024 111.87 53.9469C112.234 53.787 112.854 53.6448 113.728 53.5204C115.275 53.2983 116.433 53.0318 117.209 52.7163V53.4982Z" fill="#2E6D87"/>
<path d="M132.13 47.9405C131.682 47.3763 131.114 46.9365 130.427 46.6255C129.735 46.3145 129.004 46.159 128.232 46.159C126.835 46.159 125.687 46.7232 124.787 47.8561V41.6542H122.654V59.0382H124.632V57.4611C125.474 58.7006 126.64 59.3225 128.126 59.3225C129.611 59.3225 130.897 58.7361 131.961 57.5544C133.025 56.3771 133.558 54.7066 133.558 52.552C133.558 51.6412 133.433 50.7882 133.181 49.9886C132.928 49.1889 132.578 48.5092 132.134 47.9449L132.13 47.9405ZM130.361 56.3504C129.682 57.159 128.875 57.5677 127.944 57.5677C126.8 57.5677 125.891 57.0168 125.221 55.9195C124.809 55.2486 124.605 54.1558 124.605 52.6453C124.605 51.1348 124.942 49.9397 125.625 49.1311C126.303 48.3226 127.106 47.9138 128.037 47.9138C128.968 47.9138 129.749 48.3048 130.4 49.0867C131.052 49.8686 131.376 51.0814 131.376 52.7297C131.376 54.3779 131.035 55.5419 130.356 56.3549L130.361 56.3504Z" fill="#2E6D87"/>
<path d="M139.397 46.5855C138.985 46.8698 138.533 47.4607 138.04 48.3536V46.4433H136.125V59.0382H138.258V52.4453C138.258 51.5435 138.377 50.7127 138.612 49.953C138.772 49.4554 139.034 49.0645 139.406 48.7846C139.779 48.5047 140.195 48.3625 140.661 48.3625C141.18 48.3625 141.703 48.518 142.222 48.8246L142.954 46.8432C142.213 46.3856 141.481 46.1545 140.763 46.1545C140.266 46.1545 139.81 46.2967 139.397 46.581V46.5855Z" fill="#2E6D87"/>
<path d="M154.403 53.7603V50.9126C154.403 49.9663 154.367 49.3088 154.296 48.9445C154.172 48.3581 153.95 47.8739 153.635 47.4918C153.321 47.1097 152.828 46.7898 152.154 46.5366C151.485 46.2834 150.611 46.159 149.538 46.159C148.465 46.159 147.507 46.3056 146.687 46.6033C145.867 46.9009 145.237 47.323 144.807 47.8739C144.372 48.4247 144.062 49.1444 143.871 50.0374L145.955 50.3217C146.186 49.4288 146.536 48.8068 147.015 48.4558C147.494 48.1049 148.23 47.9272 149.237 47.9272C150.31 47.9272 151.117 48.1671 151.662 48.6513C152.066 49.0067 152.265 49.6198 152.265 50.4906C152.265 50.5705 152.265 50.7571 152.252 51.0459C151.44 51.3302 150.172 51.5746 148.452 51.7789C147.609 51.8811 146.975 51.9877 146.558 52.0988C145.991 52.2587 145.481 52.4897 145.024 52.8007C144.572 53.1073 144.204 53.516 143.925 54.0269C143.645 54.5378 143.503 55.102 143.503 55.7151C143.503 56.768 143.876 57.6299 144.616 58.3052C145.357 58.9804 146.421 59.3181 147.8 59.3181C148.638 59.3181 149.418 59.1804 150.15 58.9049C150.882 58.6295 151.64 58.1541 152.429 57.4833C152.491 58.0741 152.633 58.5939 152.855 59.0382H155.081C154.815 58.5539 154.633 58.0519 154.544 57.5277C154.456 57.0035 154.407 55.7462 154.407 53.7648L154.403 53.7603ZM152.247 53.4982C152.247 54.4401 152.132 55.1509 151.906 55.6307C151.605 56.2571 151.135 56.7458 150.496 57.1056C149.857 57.4655 149.126 57.6432 148.306 57.6432C147.485 57.6432 146.847 57.4522 146.417 57.0745C145.986 56.6969 145.774 56.2216 145.774 55.6529C145.774 55.2797 145.871 54.9421 146.071 54.64C146.266 54.3334 146.55 54.1024 146.909 53.9469C147.272 53.787 147.893 53.6448 148.767 53.5204C150.314 53.2983 151.472 53.0318 152.247 52.7163V53.4982Z" fill="#2E6D87"/>
<path d="M165.382 52.3876C164.788 52.1299 163.732 51.8012 162.229 51.3969C161.187 51.1125 160.562 50.9304 160.349 50.8504C159.976 50.6994 159.706 50.5083 159.533 50.2818C159.36 50.0596 159.271 49.8109 159.271 49.5354C159.271 49.1 159.48 48.7224 159.901 48.3981C160.318 48.0738 161.018 47.9138 161.994 47.9138C162.823 47.9138 163.462 48.096 163.918 48.4603C164.371 48.8246 164.646 49.331 164.743 49.9797L166.827 49.6953C166.694 48.8823 166.45 48.2293 166.096 47.745C165.741 47.2608 165.191 46.8743 164.446 46.5899C163.701 46.3056 162.832 46.1635 161.848 46.1635C161.191 46.1635 160.579 46.2479 160.007 46.4167C159.435 46.5855 158.983 46.7943 158.651 47.0386C158.207 47.3541 157.861 47.7539 157.604 48.2293C157.347 48.7091 157.218 49.2289 157.218 49.7886C157.218 50.4062 157.374 50.9704 157.684 51.4768C157.994 51.9877 158.456 52.3876 159.059 52.6764C159.662 52.9651 160.744 53.3072 162.309 53.7026C163.471 53.9958 164.193 54.2357 164.486 54.4268C164.903 54.7022 165.111 55.0843 165.111 55.5641C165.111 56.1016 164.876 56.5681 164.402 56.9679C163.927 57.3678 163.205 57.5677 162.225 57.5677C161.245 57.5677 160.5 57.3411 159.959 56.8924C159.418 56.4437 159.09 55.7951 158.97 54.9465L156.864 55.2797C157.099 56.617 157.648 57.6255 158.504 58.3052C159.36 58.9849 160.606 59.3225 162.238 59.3225C163.222 59.3225 164.109 59.1493 164.89 58.8072C165.67 58.4651 166.269 57.9764 166.681 57.35C167.093 56.7191 167.302 56.0528 167.302 55.3419C167.302 54.6311 167.133 54.0047 166.792 53.516C166.45 53.0273 165.985 52.6541 165.391 52.3965L165.382 52.3876Z" fill="#2E6D87"/>
<path d="M183.699 56.7947C183.141 57.31 182.44 57.5677 181.606 57.5677C180.564 57.5677 179.722 57.1856 179.074 56.4171C178.427 55.6485 178.103 54.4223 178.103 52.7297C178.103 51.037 178.44 49.842 179.11 49.0734C179.779 48.3004 180.653 47.9183 181.726 47.9183C182.435 47.9183 183.043 48.1315 183.544 48.558C184.045 48.9845 184.395 49.6198 184.59 50.4684L186.661 50.1485C186.417 48.8735 185.859 47.8916 184.994 47.203C184.125 46.51 183.007 46.1635 181.646 46.1635C180.564 46.1635 179.567 46.4167 178.644 46.9276C177.726 47.4385 177.039 48.2026 176.591 49.22C176.143 50.2418 175.917 51.428 175.917 52.7919C175.917 54.8932 176.44 56.5103 177.487 57.6343C178.533 58.7628 179.917 59.3225 181.637 59.3225C183.012 59.3225 184.169 58.9138 185.109 58.0964C186.054 57.2789 186.639 56.1461 186.865 54.6978L184.772 54.4268C184.622 55.493 184.267 56.2838 183.708 56.7991L183.699 56.7947Z" fill="#2E6D87"/>
<path d="M190.763 41.6497H188.635V59.0338H190.763V41.6497Z" fill="#2E6D87"/>
<path d="M204.247 53.7603V50.9126C204.247 49.9663 204.212 49.3088 204.141 48.9445C204.017 48.3581 203.795 47.8739 203.48 47.4918C203.165 47.1097 202.673 46.7898 201.999 46.5366C201.33 46.2834 200.456 46.159 199.383 46.159C198.31 46.159 197.352 46.3056 196.532 46.6033C195.711 46.9009 195.082 47.323 194.652 47.8739C194.217 48.4247 193.907 49.1444 193.716 50.0374L195.8 50.3217C196.031 49.4288 196.381 48.8068 196.86 48.4558C197.339 48.1049 198.075 47.9272 199.081 47.9272C200.154 47.9272 200.962 48.1671 201.507 48.6513C201.91 49.0067 202.11 49.6198 202.11 50.4906C202.11 50.5705 202.11 50.7571 202.097 51.0459C201.285 51.3302 200.017 51.5746 198.297 51.7789C197.454 51.8811 196.82 51.9877 196.403 52.0988C195.836 52.2587 195.326 52.4897 194.869 52.8007C194.417 53.1073 194.049 53.516 193.769 54.0269C193.49 54.5378 193.348 55.102 193.348 55.7151C193.348 56.768 193.72 57.6299 194.461 58.3052C195.202 58.9804 196.266 59.3181 197.645 59.3181C198.483 59.3181 199.263 59.1804 199.995 58.9049C200.726 58.6295 201.485 58.1541 202.274 57.4833C202.336 58.0741 202.478 58.5939 202.7 59.0382H204.926C204.66 58.5539 204.478 58.0519 204.389 57.5277C204.3 57.0035 204.252 55.7462 204.252 53.7648L204.247 53.7603ZM202.092 53.4982C202.092 54.4401 201.977 55.1509 201.751 55.6307C201.449 56.2571 200.979 56.7458 200.341 57.1056C199.702 57.4655 198.971 57.6432 198.15 57.6432C197.33 57.6432 196.691 57.4522 196.261 57.0745C195.831 56.6969 195.618 56.2216 195.618 55.6529C195.618 55.2797 195.716 54.9421 195.915 54.64C196.111 54.3334 196.394 54.1024 196.753 53.9469C197.117 53.787 197.738 53.6448 198.611 53.5204C200.159 53.2983 201.316 53.0318 202.092 52.7163V53.4982Z" fill="#2E6D87"/>
<path d="M210.797 46.5855C210.384 46.8698 209.932 47.4607 209.44 48.3536V46.4433H207.524V59.0382H209.657V52.4453C209.657 51.5435 209.777 50.7127 210.012 49.953C210.171 49.4554 210.433 49.0645 210.805 48.7846C211.178 48.5047 211.595 48.3625 212.06 48.3625C212.579 48.3625 213.102 48.518 213.621 48.8246L214.353 46.8432C213.612 46.3856 212.881 46.1545 212.162 46.1545C211.666 46.1545 211.209 46.2967 210.797 46.581V46.5855Z" fill="#2E6D87"/>
<path d="M225.802 53.7603V50.9126C225.802 49.9663 225.766 49.3088 225.695 48.9445C225.571 48.3581 225.35 47.8739 225.035 47.4918C224.72 47.1097 224.228 46.7898 223.554 46.5366C222.884 46.2834 222.011 46.159 220.938 46.159C219.864 46.159 218.907 46.3056 218.086 46.6033C217.266 46.9009 216.636 47.323 216.206 47.8739C215.772 48.4247 215.461 49.1444 215.271 50.0374L217.355 50.3217C217.585 49.4288 217.936 48.8068 218.414 48.4558C218.893 48.1049 219.629 47.9272 220.636 47.9272C221.709 47.9272 222.516 48.1671 223.061 48.6513C223.465 49.0067 223.665 49.6198 223.665 50.4906C223.665 50.5705 223.665 50.7571 223.651 51.0459C222.84 51.3302 221.572 51.5746 219.851 51.7789C219.009 51.8811 218.375 51.9877 217.958 52.0988C217.39 52.2587 216.88 52.4897 216.424 52.8007C215.971 53.1073 215.603 53.516 215.324 54.0269C215.044 54.5378 214.903 55.102 214.903 55.7151C214.903 56.768 215.275 57.6299 216.016 58.3052C216.756 58.9804 217.82 59.3181 219.199 59.3181C220.037 59.3181 220.818 59.1804 221.549 58.9049C222.281 58.6295 223.039 58.1541 223.829 57.4833C223.891 58.0741 224.033 58.5939 224.254 59.0382H226.48C226.214 58.5539 226.032 58.0519 225.944 57.5277C225.855 57.0035 225.806 55.7462 225.806 53.7648L225.802 53.7603ZM223.647 53.4982C223.647 54.4401 223.532 55.1509 223.305 55.6307C223.004 56.2571 222.534 56.7458 221.895 57.1056C221.257 57.4655 220.525 57.6432 219.705 57.6432C218.884 57.6432 218.246 57.4522 217.816 57.0745C217.386 56.6969 217.173 56.2216 217.173 55.6529C217.173 55.2797 217.27 54.9421 217.47 54.64C217.665 54.3334 217.949 54.1024 218.308 53.9469C218.672 53.787 219.292 53.6448 220.166 53.5204C221.713 53.2983 222.871 53.0318 223.647 52.7163V53.4982Z" fill="#2E6D87"/>
<path d="M236.776 52.3876C236.182 52.1299 235.127 51.8012 233.624 51.3969C232.582 51.1125 231.956 50.9304 231.744 50.8504C231.371 50.6994 231.101 50.5083 230.928 50.2818C230.755 50.0596 230.666 49.8109 230.666 49.5354C230.666 49.1 230.874 48.7224 231.296 48.3981C231.713 48.0738 232.413 47.9138 233.389 47.9138C234.218 47.9138 234.856 48.096 235.313 48.4603C235.765 48.8246 236.04 49.331 236.138 49.9797L238.222 49.6953C238.089 48.8823 237.845 48.2293 237.49 47.745C237.136 47.2608 236.586 46.8743 235.841 46.5899C235.096 46.3056 234.227 46.1635 233.242 46.1635C232.586 46.1635 231.974 46.2479 231.402 46.4167C230.83 46.5855 230.378 46.7943 230.045 47.0386C229.602 47.3541 229.256 47.7539 228.999 48.2293C228.742 48.7091 228.613 49.2289 228.613 49.7886C228.613 50.4062 228.768 50.9704 229.079 51.4768C229.389 51.9877 229.85 52.3876 230.453 52.6764C231.056 52.9651 232.138 53.3072 233.703 53.7026C234.865 53.9958 235.588 54.2357 235.881 54.4268C236.297 54.7022 236.506 55.0843 236.506 55.5641C236.506 56.1016 236.271 56.5681 235.796 56.9679C235.322 57.3678 234.599 57.5677 233.619 57.5677C232.639 57.5677 231.894 57.3411 231.353 56.8924C230.812 56.4437 230.484 55.7951 230.365 54.9465L228.258 55.2797C228.493 56.617 229.043 57.6255 229.899 58.3052C230.755 58.9849 232.001 59.3225 233.633 59.3225C234.617 59.3225 235.504 59.1493 236.284 58.8072C237.065 58.4651 237.663 57.9764 238.076 57.35C238.488 56.7191 238.696 56.0528 238.696 55.3419C238.696 54.6311 238.528 54.0047 238.186 53.516C237.845 53.0273 237.379 52.6541 236.785 52.3965L236.776 52.3876Z" fill="#2E6D87"/>
<path d="M77.3632 17.4018L79.3542 17.3485L80.2099 17.4018V25.2875L80.0991 30.1566C80.0991 32.4446 80.6356 34.1328 81.7043 35.2212C82.7729 36.3096 84.1652 36.8516 85.8813 36.8516C87.2071 36.8516 88.4575 36.5584 89.6281 35.9764C90.7988 35.3945 91.7078 34.5948 92.3507 33.5774L92.2399 33.2442C91.965 32.8933 91.6058 32.5423 91.1624 32.1913C90.9229 32.3557 90.7456 32.4845 90.6347 32.5778C90.0627 33.0221 89.6592 33.2887 89.4197 33.3819C89.1803 33.4752 88.8123 33.5197 88.3156 33.5197C87.819 33.5197 87.3268 33.4175 86.9056 33.2176C86.573 32.7555 86.3557 32.2713 86.2537 31.7648C86.1517 31.2584 86.1118 29.9789 86.1296 27.9264L86.1828 17.3396L87.5086 17.2552L88.0052 17.2818H89.4419C89.8853 17.3574 90.178 17.3929 90.3287 17.3929C90.6436 17.3929 91.1047 17.3396 91.7122 17.2285C91.8408 16.6599 91.9073 16.1667 91.9073 15.7447C91.9073 15.3626 91.8541 14.9228 91.7432 14.4297C90.4884 14.4652 89.7966 14.483 89.6681 14.483C88.0274 14.5585 87.1583 14.594 87.0696 14.594L86.4355 14.5674C86.4178 14.2342 86.4089 14.0209 86.4089 13.9321L86.4932 12.2972C86.5109 11.7596 86.5198 11.0133 86.5198 10.0537C86.5198 9.51611 86.4355 9.00965 86.2715 8.52985H84.7239C83.6198 10.5201 82.5822 11.9596 81.6111 12.8481C80.6401 13.7366 79.0704 14.6385 76.8932 15.5581C76.8577 16.2734 76.84 16.6821 76.84 16.7931C76.84 16.9398 76.8932 17.0952 77.0085 17.2596L77.3676 17.3973L77.3632 17.4018Z" fill="#2E6D87"/>
<path d="M117.63 32.1158C117.187 31.7293 116.632 31.2939 115.972 30.8141C115.014 31.4983 114.198 31.9825 113.524 32.2668C112.85 32.5556 112.07 32.7911 111.187 32.9732C110.708 33.0665 109.759 33.1109 108.34 33.1109L106.735 32.5823C105.977 32.3246 105.245 31.8981 104.536 31.3028C103.826 30.7119 103.232 30.0011 102.753 29.1792C102.274 28.3529 101.915 27.4022 101.676 26.3182C101.436 25.2341 101.317 24.2035 101.317 23.2216C101.317 23.035 101.334 22.8129 101.37 22.5552H103.747C105.609 22.5197 106.607 22.5019 106.735 22.5019C107.139 22.5019 107.879 22.5464 108.948 22.6396C111.826 22.7996 113.688 22.884 114.535 22.884L117.603 22.9373C117.568 21.5157 117.351 20.3073 116.952 19.3121C116.552 18.317 116.043 17.4462 115.417 16.7087C114.792 15.9713 113.963 15.2427 112.93 14.523C112.211 14.0254 111.316 13.6433 110.247 13.3723C109.178 13.1058 107.777 12.9725 106.043 12.9725C105.285 12.9725 104.301 13.1502 103.086 13.5011C102.146 13.7766 101.09 14.3408 99.9199 15.1938C98.7492 16.0423 97.6451 17.2285 96.6164 18.7435C96.2484 19.2632 95.8227 20.3073 95.3438 21.88C95.0866 23.1728 94.958 24.6255 94.958 26.2337C94.958 27.0823 95.1886 28.2152 95.6497 29.619C96 30.6897 96.5366 31.7382 97.2549 32.7555C97.9733 33.7729 98.8291 34.6259 99.8267 35.3056C100.82 35.9898 101.937 36.5007 103.175 36.8294C104.097 37.0871 105.285 37.2159 106.744 37.2159C108.904 37.2159 110.85 36.8161 112.593 36.012C114.335 35.2079 116.016 33.9106 117.639 32.1202L117.63 32.1158ZM103.192 16.3489C104.186 15.2604 105.303 14.714 106.54 14.714C107.369 14.714 108.19 14.9805 109.001 15.5092C109.813 16.0379 110.411 16.7754 110.797 17.7217C111.183 18.6679 111.387 19.6631 111.404 20.7027C111.072 20.6893 110.824 20.6804 110.655 20.6804C110.433 20.6804 110.056 20.7071 109.52 20.756C108.784 20.8093 108.212 20.8404 107.804 20.8404L101.498 20.7871C101.627 18.9212 102.19 17.4418 103.183 16.3533L103.192 16.3489Z" fill="#2E6D87"/>
<path d="M139.566 36.3852C140.156 36.3319 140.559 36.3008 140.781 36.3008C141.832 36.3008 143.557 36.3763 145.951 36.5229C146.266 36.5407 146.625 36.5496 147.029 36.5496V35.7455C147.029 35.4123 146.975 35.1279 146.864 34.888C146.106 34.3905 145.508 33.9284 145.069 33.5019C144.523 32.9422 143.273 31.4628 141.322 29.0549L136.342 23.3061C137.278 22.1688 138.723 20.5872 140.674 18.5658C141.668 17.5484 142.248 16.9887 142.417 16.8776C142.878 16.5844 143.725 16.2601 144.962 15.9091C145.477 15.7625 145.885 15.6026 146.177 15.4382C146.288 15.0828 146.346 14.7407 146.346 14.4208V13.9988H145.157L144.661 13.9721C144.514 13.9721 144.098 14.021 143.415 14.1232C142.936 14.2076 142.559 14.2475 142.28 14.2475C141.415 14.1942 140.351 14.1543 139.1 14.1365C138.271 14.0432 137.69 13.9988 137.358 13.9988H136.861V14.443C136.861 14.7585 136.896 15.1094 136.972 15.4959C138.151 15.6825 138.954 15.9135 139.38 16.189V16.3845C139.38 16.5888 139.224 16.922 138.91 17.3841L135.034 22.0488L130.587 17.273C130.365 17.0509 130.254 16.8687 130.254 16.7177L130.365 16.4422C130.697 16.1668 131.261 15.8958 132.05 15.6381C132.196 15.2516 132.272 14.9362 132.272 14.6963C132.272 14.5141 132.254 14.2831 132.218 14.0032H129.199C127.075 14.132 125.31 14.1987 123.904 14.1987L122.463 14.1143L122.046 14.061L121.244 14.0876C121.115 14.0876 120.902 14.0698 120.605 14.0343C120.459 14.0521 120.339 14.1009 120.246 14.172C120.153 14.3186 120.109 14.6163 120.109 15.0606C120.109 15.2471 120.162 15.5404 120.277 15.9491C120.556 16.0957 120.756 16.2068 120.889 16.2823C121.683 16.6688 122.157 16.9309 122.304 17.0597C122.8 17.4862 123.691 18.4281 124.964 19.8853L125.523 20.3651C125.935 20.8893 126.56 21.5601 127.39 22.3731L127.766 22.9018C129.828 24.981 130.924 26.0605 131.057 26.1494L130.68 26.5537L125.629 31.5783C124.521 32.6489 123.811 33.3153 123.51 33.573C123.204 33.8307 122.84 34.0795 122.414 34.3194C121.767 34.6703 120.982 35.0035 120.055 35.3145V35.8032C120.055 35.9676 120.064 36.2119 120.082 36.5363C120.543 36.5185 121.235 36.4874 122.162 36.4385C123.55 36.3408 124.942 36.2875 126.348 36.2875C127.345 36.2875 128.25 36.3319 129.066 36.4252C129.584 36.5007 129.979 36.5363 130.258 36.5363C130.387 36.1675 130.454 35.8787 130.454 35.6788C130.454 35.5855 130.436 35.4478 130.4 35.2612L130.041 35.1235C129.802 35.0124 129.505 34.9014 129.154 34.7903C128.636 34.6037 128.272 34.386 128.059 34.1239C127.846 33.8662 127.74 33.5775 127.74 33.2665C127.74 32.88 127.917 32.4357 128.268 31.9381C128.822 31.1784 130.201 29.7746 132.418 27.7221C132.968 28.2863 133.469 28.8238 133.917 29.3347C135.021 30.6853 135.677 31.4406 135.881 31.6049C136.506 32.2313 136.923 32.7023 137.127 33.0177C137.256 33.222 137.349 33.5241 137.402 33.9329C137.069 34.155 136.763 34.3371 136.488 34.4882C135.992 34.7103 135.5 34.968 135.021 35.2657C135.003 35.5056 134.994 35.6922 134.994 35.821C134.994 35.9898 135.012 36.2475 135.047 36.5984L135.407 36.6251C136.253 36.6251 137.353 36.554 138.697 36.403H139.584L139.566 36.3852Z" fill="#2E6D87"/>
<path d="M149.937 17.4018L151.928 17.3485L152.784 17.4018V25.2875L152.673 30.1566C152.673 32.4446 153.21 34.1328 154.278 35.2212C155.347 36.3096 156.739 36.8516 158.455 36.8516C159.781 36.8516 161.032 36.5584 162.202 35.9764C163.373 35.3945 164.282 34.5948 164.925 33.5774L164.814 33.2442C164.539 32.8933 164.18 32.5423 163.737 32.1913C163.497 32.3557 163.32 32.4845 163.209 32.5778C162.637 33.0221 162.233 33.2887 161.994 33.3819C161.755 33.4752 161.386 33.5197 160.89 33.5197C160.393 33.5197 159.901 33.4175 159.48 33.2176C159.147 32.7555 158.93 32.2713 158.828 31.7648C158.726 31.2584 158.686 29.9789 158.704 27.9264L158.757 17.3396L160.083 17.2552L160.579 17.2818H162.016C162.46 17.3574 162.752 17.3929 162.903 17.3929C163.218 17.3929 163.679 17.3396 164.286 17.2285C164.415 16.6599 164.482 16.1667 164.482 15.7447C164.482 15.3626 164.428 14.9228 164.317 14.4297C163.063 14.4652 162.371 14.483 162.242 14.483C160.602 14.5585 159.733 14.594 159.644 14.594L159.01 14.5674C158.992 14.2342 158.983 14.0209 158.983 13.9321L159.067 12.2972C159.085 11.7596 159.094 11.0133 159.094 10.0537C159.094 9.51611 159.01 9.00965 158.846 8.52985H157.298C156.194 10.5201 155.156 11.9596 154.185 12.8481C153.219 13.7322 151.645 14.6385 149.467 15.5581C149.432 16.2734 149.414 16.6821 149.414 16.7931C149.414 16.9398 149.467 17.0952 149.583 17.2596L149.942 17.3973L149.937 17.4018Z" fill="#2E6D87"/>
<path d="M195.849 35.0524C195.902 34.7769 195.933 34.5726 195.933 34.4437C195.933 34.3504 195.907 33.9817 195.849 33.3375L195.516 33.2842L192.971 33.3686C192.825 33.3686 192.665 33.2576 192.501 33.0354C192.337 32.8133 192.253 32.4712 192.253 32.0136C192.253 31.8848 192.288 31.3383 192.364 30.3832L192.337 28.9438L192.39 26.8113L192.417 22.0532L192.364 18.7346L192.474 16.0779L192.421 14.0032C190.758 14.0387 189.353 14.0565 188.204 14.0565L183.934 14.0032C183.491 14.0032 182.963 14.0476 182.356 14.1409C182.302 14.5452 182.271 14.8606 182.271 15.0827C182.271 15.2693 182.307 15.5448 182.382 15.9135C182.475 15.989 182.577 16.0512 182.688 16.109L184.542 16.2467C185.335 16.3222 185.952 16.4955 186.395 16.7709L186.448 17.3796L186.422 18.4014C186.422 18.4947 186.435 18.9034 186.462 19.632C186.488 20.3606 186.502 20.9648 186.502 21.4446C186.502 21.9244 186.484 22.4975 186.448 23.2172L186.253 30.1077C186.049 30.6053 185.681 31.1517 185.145 31.7382C184.959 31.9425 184.533 32.2757 183.859 32.7333C183.185 33.1954 182.591 33.5063 182.076 33.6752C181.562 33.8395 180.888 33.924 180.059 33.924C179.172 33.924 178.423 33.7151 177.806 33.302C177.19 32.8888 176.742 32.2757 176.463 31.4627C176.259 30.3921 176.157 28.926 176.157 27.0645V24.2124L176.183 20.0363L176.157 18.6235L176.241 15.9135L176.188 14.0609L175.58 14.0076H167.337C167.208 14.0432 167.04 14.1009 166.84 14.172C166.805 14.5985 166.77 14.9006 166.743 15.0872C166.716 15.2738 166.703 15.4204 166.703 15.5314C166.703 15.718 166.747 15.838 166.84 15.8913C167.138 16.0779 167.874 16.2689 169.053 16.4733C169.403 16.5266 169.705 16.611 169.967 16.7221C170.135 17.0375 170.224 17.3129 170.241 17.5528C170.295 18.0504 170.326 19.0367 170.326 20.5161C170.326 21.3824 170.281 22.7196 170.188 24.5278L170.162 25.4119C170.162 28.6772 170.179 30.4854 170.215 30.8363C170.343 32.1824 170.601 33.2176 170.991 33.9373C171.505 34.8613 172.317 35.6344 173.425 36.2608C174.529 36.8872 175.842 37.2026 177.354 37.2026C178.627 37.2026 179.841 36.9494 181.003 36.4429C182.165 35.9365 183.557 34.9591 185.18 33.5197C185.606 33.1332 185.925 32.8444 186.147 32.6622L186.173 37.1804L187.278 37.2337C189.619 36.3674 191.778 35.7099 193.752 35.2656C194.177 35.1723 194.878 35.1101 195.853 35.0702L195.849 35.0524Z" fill="#2E6D87"/>
<path d="M213.994 32.6445C214.637 34.1594 215.355 35.2168 216.135 35.8165C216.92 36.4163 217.856 36.7184 218.942 36.7184C220.029 36.7184 220.906 36.4074 221.625 35.7899C222.343 35.1723 222.924 34.0395 223.367 32.3957L223.341 32.258C223.305 32.0714 223.203 31.9159 223.035 31.787L222.401 31.3694L221.904 31.5649L221.075 32.8666C220.929 32.9777 220.756 33.031 220.556 33.031C220.228 33.031 219.962 32.8888 219.754 32.6C219.545 32.3157 219.443 31.7826 219.443 31.0051V30.1477L219.386 26.7935L219.443 22.2221C219.443 19.4321 219.235 17.504 218.822 16.4289C218.406 15.3582 217.67 14.5496 216.61 14.0032C215.55 13.4567 214.282 13.1857 212.805 13.1857C210.517 13.1857 208.584 13.4434 206.996 13.9632C205.835 14.3675 204.584 15.0783 203.25 16.0823C201.91 17.0908 200.913 18.1304 200.248 19.2011C199.804 19.9608 199.583 20.8626 199.583 21.9155C199.583 22.3242 199.711 22.6352 199.968 22.8573C200.558 22.8573 201.352 22.6174 202.345 22.1376C202.602 22.0088 203.094 21.8 203.826 21.5157C204.553 21.2313 205.059 20.9115 205.334 20.5605C205.445 20.4317 205.564 19.9607 205.693 19.1477C205.875 18.0193 206.096 17.2552 206.358 16.8465C206.708 16.2911 207.271 15.838 208.043 15.487C208.819 15.136 209.666 14.9628 210.588 14.9628C211.51 14.9628 212.153 15.2382 212.526 15.7936C213.133 16.6999 213.439 18.3969 213.439 20.8937C213.439 21.6134 213.413 22.3242 213.355 23.0262L206.469 25.7984C205.272 26.3137 204.571 26.6291 204.367 26.7402C203.041 27.4777 202.075 28.1574 201.476 28.7794C200.877 29.3969 200.443 30.0233 200.177 30.6497C199.911 31.2761 199.778 31.8981 199.778 32.5068C199.778 33.8173 200.23 34.8747 201.134 35.6788C202.039 36.4829 203.449 36.8828 205.365 36.8828C207.449 36.8828 209.209 36.5273 210.65 35.8165C212.087 35.1057 213.204 34.0484 213.998 32.6445H213.994ZM207.187 33.3908C206.708 32.8755 206.469 32.218 206.469 31.4228C206.469 30.5342 206.651 29.7879 207.023 29.1792C207.537 28.3484 208.455 27.5221 209.777 26.7002C211.094 25.8783 212.278 25.2919 213.328 24.9409C213.404 25.7539 213.439 26.567 213.439 27.38C213.439 29.5791 213.355 30.9118 213.191 31.3828C213.027 31.8537 212.455 32.489 211.475 33.2798C210.757 33.8706 209.879 34.1683 208.846 34.1683C208.22 34.1683 207.666 33.9106 207.187 33.3908Z" fill="#2E6D87"/>
<path d="M227.957 34.2216C227.771 34.4615 227.039 34.657 225.757 34.8036C225.088 34.8791 224.551 35.0568 224.143 35.3367L224.254 36.6295H226.272C228.263 36.4652 229.784 36.3807 230.835 36.3807L231.859 36.4074C233.704 36.4074 235.233 36.4474 236.448 36.5318L238.634 36.6295C238.67 36.2963 238.688 36.0387 238.688 35.8521C238.688 35.6122 238.643 35.2967 238.55 34.9102C237.415 34.7636 236.652 34.6703 236.271 34.6348C235.557 34.5815 235.087 34.4304 234.87 34.1905C234.613 33.8573 234.484 33.2931 234.484 32.5023V31.8404L234.431 27.7976V15.5315L234.378 15.0028V14.8384C234.413 14.4119 234.431 13.8521 234.431 13.1502C234.431 10.7867 234.378 6.41072 234.267 0.0266558C233.956 0.00888527 233.717 0 233.553 0L232.786 0.0266558C231.956 0.635297 230.759 1.23061 229.194 1.8126C227.629 2.39458 226.121 2.76776 224.667 2.93658C224.631 3.12317 224.613 3.28755 224.613 3.43416C224.613 3.65629 224.64 3.99837 224.698 4.46041C225.088 4.5537 225.505 4.59813 225.953 4.59813C226.693 4.59813 227.394 4.7936 228.041 5.18011C228.281 5.89982 228.405 7.01492 228.405 8.52986V9.63608L228.458 16.0335V21.6268L228.511 23.4793V31.285C228.511 32.76 228.325 33.7418 227.952 34.2216H227.957Z" fill="#2E6D87"/>
<path d="M41.362 8.09003C42.2799 8.98744 43.0426 10.0181 43.6501 11.191V38.8686C38.2625 43.5023 34.0722 52.0188 30.1125 61.2684V45.5814C31.8064 44.9417 33.0568 42.907 33.0568 40.4635C33.0568 37.5136 31.2432 35.119 29.0084 35.119C26.7736 35.119 24.96 37.5136 24.96 40.4635C24.96 42.907 26.2104 44.9417 27.9043 45.5814V61.2684C23.9446 52.0188 19.7543 43.5023 14.3667 38.8686V11.1954C14.921 10.1248 15.6216 9.18292 16.4331 8.34326C6.70448 13.0791 0 23.075 0 34.6392C0 50.7793 13.0587 63.8629 29.168 63.8629C45.2774 63.8629 58.3361 50.7793 58.3361 34.6392C58.3361 22.8618 51.3788 12.7193 41.362 8.09003Z" fill="#2E6D87"/>
</g>
<defs>
<clipPath id="clip0_378_195">
<rect width="238.688" height="63.8629" fill="white"/>
</clipPath>
</defs>
</svg>
